<svg width="72" height="42" viewBox="0 0 72 42" fill="none" xmlns="http://www.w3.org/2000/svg">
<path d="M70.9017 21.7487L63.239 1.74493C63.0776 1.26097 62.4323 0.93833 61.9484 1.18031L53.8823 4.08409C53.3177 4.24541 53.0757 4.89069 53.2371 5.37465C53.2371 5.37465 53.2371 5.37465 53.2371 5.45531L53.963 7.22984L48.4781 9.81098L39.4441 8.11711C37.6696 7.79447 35.8144 8.19777 34.3625 9.24635L32.7493 10.4563L31.7007 9.64966C30.0875 8.43975 27.9904 8.11711 26.0545 8.68173L22.5861 9.73032L18.0691 6.98786L18.7144 5.37465C18.9564 4.89069 18.6337 4.24541 18.1498 4.08409C18.1498 4.08409 18.1498 4.08409 18.0691 4.08409L10.0031 1.18031C9.51911 1.01899 8.87383 1.26097 8.71251 1.74493L1.04977 21.7487C0.88845 22.2327 1.13043 22.7973 1.61439 23.0393L9.27713 26.3464C9.43845 26.427 9.51912 26.427 9.68044 26.427C9.84176 26.427 9.92242 26.427 10.0837 26.3464C10.3257 26.2657 10.5677 26.0237 10.6484 25.7817L11.455 23.8459L17.8271 27.395C16.9399 28.6855 17.1012 30.3794 18.2304 31.5086C18.7951 32.0733 19.6017 32.4766 20.4889 32.4766H20.5696C20.7309 34.1704 22.1021 35.461 23.796 35.461H23.8767C23.9573 36.1869 24.28 36.9129 24.7639 37.4775C25.4092 38.0421 26.2158 38.4454 27.0224 38.4454H27.1031C27.2644 40.22 28.797 41.5105 30.5715 41.3492C31.2974 41.2685 32.0234 40.9459 32.588 40.3813L33.7979 39.1714L35.4111 40.3813C36.863 41.4299 38.8795 41.3492 40.1701 40.0586L40.3314 39.8973C40.8154 39.3327 41.2187 38.6874 41.2993 37.9615C42.5899 38.2841 43.8805 37.9615 44.8484 37.0742L44.929 36.9935C45.4937 36.4289 45.897 35.703 45.9776 34.8157C47.2682 35.219 48.6394 34.8157 49.5267 33.9284L49.6073 33.8478C50.172 33.2832 50.4946 32.5572 50.6559 31.7506C52.5918 32.2346 54.5276 31.0247 55.0116 29.0888C55.0923 28.6855 55.0922 28.3629 55.0922 27.9596C55.0922 27.7176 55.0116 27.5563 55.0116 27.3143L60.9805 24.4105L61.5451 25.7817C61.6257 26.0237 61.8677 26.2657 62.1097 26.3464C62.271 26.427 62.3517 26.427 62.513 26.427C62.6743 26.427 62.755 26.427 62.9163 26.3464L70.5791 23.0393C70.9017 22.7973 71.1437 22.2327 70.9017 21.7487ZM9.03515 24.0879L3.2276 21.5874L10.2451 3.4388L11.9389 4.08409L8.63185 13.36C8.47053 13.9247 8.71251 14.4893 9.27713 14.6506C9.35779 14.6506 9.51911 14.7313 9.59978 14.7313C10.0031 14.7313 10.4064 14.4893 10.5677 14.086L13.8748 4.72937L16.3753 5.61664L9.03515 24.0879ZM21.1342 30.0567C20.7309 30.6214 20.005 30.702 19.521 30.2987C18.9564 29.8954 18.8757 29.1695 19.279 28.6855C19.3597 28.6049 19.4403 28.4435 19.6017 28.4435L21.7795 26.2657C22.2635 25.7817 22.9894 25.7817 23.4734 26.2657C23.7153 26.5077 23.796 26.7497 23.796 27.0723C23.796 27.3949 23.6347 27.6369 23.4734 27.8789L21.1342 30.0567ZM24.6833 32.8799C24.6026 32.9605 24.6026 32.9605 24.522 33.0412C24.28 33.2832 24.038 33.3638 23.7153 33.3638C23.0701 33.3638 22.5861 32.8799 22.5054 32.2346C22.5054 31.9119 22.6668 31.67 22.8281 31.428L24.8446 29.4115C24.9253 29.3308 25.0059 29.2501 25.0059 29.2501C25.4899 28.7662 26.2158 28.7662 26.6998 29.2501C26.9418 29.4921 27.0224 29.7341 27.0224 30.0567C27.0224 30.3794 26.8611 30.6214 26.6998 30.8633L24.6833 32.8799ZM27.829 35.945C27.3451 36.4289 26.6191 36.4289 26.1352 35.945C25.6512 35.461 25.6512 34.735 26.1352 34.2511L28.313 32.0733C28.555 31.8313 28.797 31.7506 29.1196 31.7506C29.4422 31.7506 29.6842 31.9119 29.9262 32.0733C30.1682 32.3152 30.2488 32.5572 30.2488 32.8799C30.2488 33.2025 30.0875 33.4445 29.9262 33.6865L27.829 35.945ZM33.3139 36.6709L31.0555 38.9294C30.8135 39.1714 30.5715 39.252 30.2488 39.252C29.9262 39.252 29.6842 39.0907 29.4422 38.9294C28.9583 38.4454 28.9583 37.7195 29.4422 37.2355L31.4588 35.219L31.6201 35.0577C31.8621 34.8157 32.104 34.7351 32.4267 34.7351C32.7493 34.7351 32.9913 34.8964 33.2333 35.0577C33.4753 35.2997 33.5559 35.5417 33.5559 35.8643C33.6366 36.1869 33.4753 36.5096 33.3139 36.6709ZM52.5111 29.3308C51.9465 29.8954 51.0592 29.9761 50.414 29.4115L49.6073 28.7662C49.5267 28.6855 49.446 28.6049 49.446 28.5242L47.5908 27.0723C47.1069 26.7497 46.4616 26.7497 46.1389 27.2336C45.8163 27.7176 45.8163 28.3629 46.3003 28.6855L47.9135 29.9761C47.9135 30.0567 47.9941 30.1374 48.0748 30.1374C48.7201 30.702 48.8007 31.67 48.2361 32.3152C48.2361 32.3152 48.2361 32.3959 48.1555 32.3959L47.9941 32.4766C47.4295 33.0412 46.6229 33.1218 45.9776 32.6379L44.3644 31.5086L43.7998 31.1053C43.3158 30.7827 42.6706 30.8633 42.3479 31.3473C42.0253 31.8313 42.1059 32.4766 42.5899 32.7992L43.2352 33.2025C43.5578 33.4445 43.7998 33.8478 43.8805 34.3317C43.8805 34.8157 43.7191 35.219 43.3965 35.5417L43.3158 35.6223C42.7512 36.1869 41.7833 36.1869 41.2187 35.703L39.5248 34.1704C39.1215 33.7671 38.4762 33.8478 38.0729 34.2511C37.6696 34.6544 37.7503 35.2997 38.1536 35.703L38.7182 36.1869C39.3635 36.7516 39.4441 37.7195 38.8795 38.3648C38.8795 38.3648 38.8795 38.4454 38.7988 38.4454L38.7182 38.5261C38.1536 39.0907 37.2663 39.1714 36.7017 38.6874L35.1691 37.6388C36.1371 36.1063 35.7338 34.1704 34.2012 33.2025C33.7172 32.8799 33.072 32.7185 32.4267 32.7185H32.346C32.2654 31.9926 31.9427 31.2667 31.3781 30.702C30.7328 30.1374 29.9262 29.7341 29.1196 29.7341H29.0389C28.8776 28.0402 27.4257 26.7497 25.7319 26.8303C25.5705 25.0558 24.038 23.7652 22.2635 23.9266C21.5375 24.0072 20.8116 24.3299 20.247 24.8945L19.1177 26.0237L12.1002 22.0714L17.2625 9.08503L21.9408 11.8275C22.1828 11.9888 22.5054 11.9888 22.7474 11.9081L26.6191 10.7789C27.9097 10.3756 29.3616 10.6176 30.4908 11.4242L31.0555 11.8275L25.5705 15.8605C24.1187 16.9091 23.796 18.9256 24.8446 20.3775C25.0059 20.6195 25.3286 20.8615 25.5705 21.1034C27.1031 22.3133 29.2809 22.394 30.8941 21.3454L35.1691 18.603C35.8144 19.9742 36.863 21.1034 38.2342 21.8294C40.0894 22.7973 42.4286 22.7973 45.0904 21.91L52.3498 27.153C53.0757 27.6369 53.2371 28.6049 52.7531 29.3308C52.5918 29.2501 52.5918 29.3308 52.5111 29.3308ZM53.8017 25.5398L45.8163 19.8129C45.4937 19.5709 45.171 19.5709 44.8484 19.6515C42.5899 20.5388 40.654 20.6195 39.2022 19.8935C37.9922 19.1676 37.105 18.0383 36.7017 16.7478C36.621 16.4251 36.379 16.1831 36.0564 16.0218C35.7338 15.9412 35.4111 15.9412 35.0885 16.1025L29.7649 19.4902C28.797 20.0549 27.6677 20.0549 26.7804 19.3289C26.4578 19.1676 26.2965 18.7643 26.2965 18.361C26.2965 17.9577 26.4578 17.635 26.7804 17.3931L35.6531 10.8596C36.621 10.1336 37.9116 9.81098 39.1215 10.053L48.4781 11.8275C48.7201 11.9081 48.8814 11.8275 49.1234 11.7468L54.7696 9.08503L60.0932 22.5553L53.8017 25.5398ZM62.9163 24.0879L55.6569 5.61664L58.1573 4.72937L61.4644 14.086C61.6257 14.4893 62.029 14.7313 62.4324 14.7313C62.513 14.7313 62.6743 14.7313 62.755 14.6506C63.3196 14.4893 63.5616 13.9247 63.4003 13.36L60.0932 4.00343L61.7871 3.4388L68.7239 21.5874L62.9163 24.0879Z" fill="#D8BC40" stroke="#D8BC40"/>
</svg>
