<svg width="62" height="62" viewBox="0 0 62 62" fill="none" xmlns="http://www.w3.org/2000/svg">
<path d="M25.011 42.8437V41.5721C25.122 37.1525 26.9105 32.9408 30.0135 29.7917C31.5768 28.1263 32.7915 26.1652 33.5862 24.0236C34.3809 21.8821 34.7396 19.6034 34.6413 17.3213C34.543 15.0392 33.9895 12.7997 33.0135 10.7345C32.0375 8.66931 30.6586 6.81999 28.9578 5.29519C27.1998 3.7062 25.1229 2.51075 22.8658 1.78875C20.6088 1.06674 18.2236 0.834817 15.8698 1.10847C12.6954 1.52119 9.70108 2.81814 7.22856 4.85125C4.75605 6.88436 2.90499 9.5717 1.88672 12.6065C0.868453 15.6413 0.723993 18.9013 1.46984 22.0142C2.21568 25.1272 3.82177 27.9678 6.10477 30.2116C7.56749 31.715 8.71892 33.4925 9.49297 35.4421C10.267 37.3916 10.6485 39.4748 10.6154 41.5721V42.8437C10.6154 43.1619 10.7418 43.467 10.9668 43.692C11.1917 43.917 11.4969 44.0434 11.815 44.0434H17.5733C17.6612 44.048 17.7493 44.048 17.8372 44.0434C17.9291 44.0491 18.0212 44.0491 18.1131 44.0434H23.8114C24.1295 44.0434 24.4347 43.917 24.6596 43.692C24.8846 43.467 25.011 43.1619 25.011 42.8437ZM22.6117 41.6441H19.0128V23.0618L23.9553 18.0593C24.1769 17.8359 24.3019 17.5343 24.3032 17.2196C24.3022 16.9823 24.2309 16.7507 24.0983 16.5539C23.9656 16.3572 23.7776 16.2043 23.5581 16.1144C23.3385 16.0245 23.0972 16.0017 22.8647 16.049C22.6322 16.0962 22.4189 16.2114 22.2518 16.3798L17.8132 20.8664L15.066 18.0833C14.8413 17.8599 14.5372 17.7344 14.2203 17.7344C13.9034 17.7344 13.5993 17.8599 13.3745 18.0833C13.2621 18.1948 13.1729 18.3275 13.112 18.4737C13.0511 18.6199 13.0197 18.7767 13.0197 18.935C13.0197 19.0934 13.0511 19.2502 13.112 19.3964C13.1729 19.5426 13.2621 19.6752 13.3745 19.7868L16.6136 23.0618V41.6441H13.0147V41.5721C13.0444 39.1548 12.5966 36.7554 11.697 34.5115C10.7974 32.2676 9.46366 30.2234 7.77226 28.4961C5.81369 26.5668 4.4366 24.1261 3.79796 21.4521C3.15933 18.7781 3.28486 15.9785 4.16023 13.3724C5.0356 10.7662 6.6256 8.45852 8.74896 6.71226C10.8723 4.966 13.4436 3.85148 16.1697 3.49574C18.185 3.23803 20.2321 3.41751 22.1718 4.02198C24.1115 4.62645 25.8982 5.64171 27.4103 6.99867C28.8737 8.30894 30.0606 9.89844 30.9012 11.6738C31.7418 13.4492 32.2191 15.3746 32.3052 17.3371C32.3912 19.2995 32.0842 21.2593 31.4023 23.1015C30.7203 24.9436 29.6771 26.6309 28.334 28.0642C24.7606 31.6636 22.7113 36.5012 22.6117 41.5721V41.6441Z" fill="#D9BD41" stroke="#D9BD41"/>
<path d="M14.7541 45.6392C14.436 45.6392 14.1308 45.7655 13.9059 45.9905C13.6809 46.2155 13.5545 46.5206 13.5545 46.8388C13.5545 47.157 13.6809 47.4621 13.9059 47.6871C14.1308 47.912 14.436 48.0384 14.7541 48.0384H20.9082C21.2264 48.0384 21.5315 47.912 21.7565 47.6871C21.9815 47.4621 22.1079 47.157 22.1079 46.8388C22.1079 46.5206 21.9815 46.2155 21.7565 45.9905C21.5315 45.7655 21.2264 45.6392 20.9082 45.6392H14.7541Z" fill="#D9BD41" stroke="#D9BD41"/>
<path d="M22.1079 50.4374C22.1079 50.1193 21.9815 49.8141 21.7565 49.5892C21.5315 49.3642 21.2264 49.2378 20.9082 49.2378H14.7541C14.436 49.2378 14.1308 49.3642 13.9059 49.5892C13.6809 49.8141 13.5545 50.1193 13.5545 50.4374C13.5545 50.7556 13.6809 51.0607 13.9059 51.2857C14.1308 51.5107 14.436 51.6371 14.7541 51.6371H20.9082C21.2264 51.6371 21.5315 51.5107 21.7565 51.2857C21.9815 51.0607 22.1079 50.7556 22.1079 50.4374Z" fill="#D9BD41" stroke="#D9BD41"/>
<path d="M44.613 31.4355C35.5798 31.4355 28.226 36.8699 28.226 43.5399C28.226 47.8225 31.2611 51.7454 36.1916 53.9167V59.7829C36.1904 60.0218 36.2605 60.2556 36.393 60.4543C36.5255 60.6531 36.7144 60.8078 36.9353 60.8986C37.1514 60.9798 37.3863 60.9969 37.6118 60.948C37.8374 60.899 38.044 60.7861 38.207 60.6226L43.1854 55.5842C43.6893 55.5842 44.1331 55.5842 44.577 55.5842C53.6462 55.6322 61 50.1858 61 43.5399C61 36.8939 53.6462 31.4355 44.613 31.4355ZM44.613 53.2329C44.0852 53.2329 43.5333 53.2329 42.8615 53.1489C42.6858 53.1328 42.5087 53.1556 42.3428 53.2157C42.1769 53.2758 42.0264 53.3718 41.9018 53.4968L38.5908 56.8558V53.1249C38.5926 52.8812 38.52 52.6428 38.3828 52.4413C38.2457 52.2399 38.0504 52.085 37.8231 51.9973C33.3844 50.2698 30.6253 47.0308 30.6253 43.5998C30.6253 38.2495 36.8994 33.8948 44.613 33.8948C52.3266 33.8948 58.6007 38.1895 58.6007 43.5399C58.6007 48.8902 52.3266 53.2329 44.613 53.2329Z" fill="#D9BD41" stroke="#D9BD41"/>
<path d="M49.0876 39.6772H40.1384C39.8202 39.6772 39.5151 39.8036 39.2901 40.0286C39.0651 40.2536 38.9387 40.5587 38.9387 40.8769C38.9387 41.195 39.0651 41.5002 39.2901 41.7251C39.5151 41.9501 39.8202 42.0765 40.1384 42.0765H49.0876C49.4058 42.0765 49.7109 41.9501 49.9359 41.7251C50.1609 41.5002 50.2873 41.195 50.2873 40.8769C50.2873 40.5587 50.1609 40.2536 49.9359 40.0286C49.7109 39.8036 49.4058 39.6772 49.0876 39.6772Z" fill="#D9BD41" stroke="#D9BD41"/>
<path d="M49.0876 44.9912H40.1384C39.8202 44.9912 39.5151 45.1176 39.2901 45.3426C39.0651 45.5676 38.9387 45.8727 38.9387 46.1908C38.9387 46.509 39.0651 46.8141 39.2901 47.0391C39.5151 47.2641 39.8202 47.3905 40.1384 47.3905H49.0876C49.4058 47.3905 49.7109 47.2641 49.9359 47.0391C50.1609 46.8141 50.2873 46.509 50.2873 46.1908C50.2873 45.8727 50.1609 45.5676 49.9359 45.3426C49.7109 45.1176 49.4058 44.9912 49.0876 44.9912Z" fill="#D9BD41" stroke="#D9BD41"/>
<path d="M45.3208 10.7536C45.4665 10.8146 45.6228 10.8462 45.7807 10.8466C45.9386 10.847 46.0951 10.8163 46.2411 10.7561C46.3871 10.6959 46.5198 10.6075 46.6316 10.4959C46.7433 10.3843 46.8319 10.2517 46.8923 10.1058C47.0356 9.78195 47.2621 9.50183 47.5488 9.294C47.8355 9.08616 48.1722 8.95804 48.5245 8.92268C48.8769 8.88733 49.2323 8.946 49.5546 9.09272C49.8769 9.23944 50.1546 9.46897 50.3593 9.75792C50.5493 10.0616 50.6561 10.4099 50.6687 10.768C50.6813 11.126 50.5994 11.481 50.4313 11.7973C50.2702 12.116 50.0255 12.3849 49.7233 12.5751C49.4211 12.7653 49.0728 12.8696 48.7158 12.877C48.3976 12.877 48.0925 13.0034 47.8675 13.2283C47.6425 13.4533 47.5162 13.7584 47.5162 14.0766V18.8751C47.5162 19.1933 47.6425 19.4984 47.8675 19.7234C48.0925 19.9484 48.3976 20.0748 48.7158 20.0748C49.0339 20.0748 49.3391 19.9484 49.5641 19.7234C49.789 19.4984 49.9154 19.1933 49.9154 18.8751V15.1443C50.4857 14.9876 51.018 14.7164 51.48 14.3472C51.942 13.978 52.324 13.5186 52.6026 12.9969C52.9865 12.2931 53.1714 11.498 53.1376 10.697C53.1038 9.89599 52.8525 9.11931 52.4107 8.45032C51.9649 7.80026 51.3528 7.2818 50.6382 6.94908C49.9236 6.61635 49.1329 6.48156 48.3484 6.55878C47.564 6.63599 46.8147 6.92239 46.1787 7.38806C45.5428 7.85373 45.0435 8.48159 44.733 9.20609C44.6134 9.49016 44.6078 9.80936 44.7172 10.0975C44.8267 10.3856 45.0428 10.6206 45.3208 10.7536Z" fill="#D9BD41" stroke="#D9BD41"/>
<path d="M61 2.20012C61 1.88196 60.8736 1.57683 60.6486 1.35185C60.4236 1.12688 60.1185 1.00049 59.8003 1.00049H37.871C37.5529 1.00049 37.2477 1.12688 37.0228 1.35185C36.7978 1.57683 36.6714 1.88196 36.6714 2.20012V24.4173C36.6714 24.7355 36.7978 25.0406 37.0228 25.2656C37.2477 25.4906 37.5529 25.617 37.871 25.617H59.8003C60.1185 25.617 60.4236 25.4906 60.6486 25.2656C60.8736 25.0406 61 24.7355 61 24.4173V2.20012ZM58.6007 23.2177H39.0707V3.39976H58.6007V23.2177Z" fill="#D9BD41" stroke="#D9BD41"/>
</svg>
