<svg width="60" height="60" viewBox="0 0 60 60" fill="none" xmlns="http://www.w3.org/2000/svg">
<path d="M49.0903 21.8182C46.6409 21.8706 44.2529 21.0488 42.3543 19.5002C40.4724 18.018 39.1307 15.9575 38.5364 13.6369H21.4102C20.9631 15.4982 20.0208 17.2038 18.683 18.573C17.2967 19.9677 15.55 20.9497 13.6379 21.4092V38.5354C15.9585 39.1297 18.019 40.4714 19.5012 42.3534C21.0498 44.2519 21.8716 46.6399 21.8192 49.0893C21.8388 50.5249 21.566 51.9495 21.0175 53.2763C20.4689 54.6031 19.6561 55.8044 18.6285 56.807C17.6258 57.8347 16.4246 58.6475 15.0977 59.196C13.7709 59.7446 12.3464 60.0173 10.9108 59.9978C9.47887 60.02 8.05759 59.7484 6.73483 59.1996C5.41206 58.6508 4.21592 57.8365 3.22034 56.807C2.18391 55.8097 1.36346 54.61 0.809905 53.2824C0.256346 51.9548 -0.0185218 50.5276 0.00235382 49.0893C-0.049979 46.6399 0.771803 44.2519 2.3204 42.3534C3.80259 40.4714 5.86305 39.1297 8.18368 38.5354V21.4092C5.86305 20.8148 3.80259 19.4732 2.3204 17.5912C0.781938 15.7083 -0.0393643 13.341 0.00235382 10.9098C-0.0213111 9.47522 0.252398 8.05128 0.806237 6.7277C1.36008 5.40412 2.18204 4.20958 3.22034 3.21936C4.21056 2.18106 5.40509 1.3591 6.72867 0.805261C8.05226 0.251422 9.4762 -0.0222876 10.9108 0.00137726C13.342 -0.0403409 15.7092 0.780961 17.5922 2.31942C19.4741 3.80161 20.8158 5.86207 21.4102 8.1827H38.5364C39.1307 5.86207 40.4724 3.80161 42.3543 2.31942C44.2529 0.770827 46.6409 -0.0509556 49.0903 0.00137726C50.5285 -0.0194983 51.9557 0.255369 53.2833 0.808928C54.6109 1.36249 55.8106 2.18293 56.808 3.21936C57.8374 4.21494 58.6517 5.41109 59.2005 6.73385C59.7493 8.05662 60.021 9.47789 59.9987 10.9098C60.0183 12.3454 59.7455 13.77 59.197 15.0968C58.6485 16.4236 57.8356 17.6249 56.808 18.6275C55.8054 19.6551 54.6041 20.468 53.2773 21.0165C51.9505 21.565 50.5259 21.8378 49.0903 21.8182ZM10.9108 54.5435C11.6302 54.5527 12.3436 54.412 13.0057 54.1302C13.6677 53.8485 14.2638 53.432 14.756 52.9073C15.7736 51.8958 16.3517 50.5241 16.365 49.0893C16.3728 48.3726 16.2341 47.6619 15.9574 47.0006C15.6807 46.3394 15.2719 45.7417 14.756 45.2441C14.2584 44.7282 13.6607 44.3194 12.9995 44.0427C12.3383 43.7661 11.6275 43.6273 10.9108 43.6351C9.47604 43.6484 8.10431 44.2265 7.09283 45.2441C6.56808 45.7363 6.15158 46.3324 5.86987 46.9944C5.58816 47.6565 5.4474 48.3699 5.45657 49.0893C5.45444 49.8037 5.59851 50.5109 5.87991 51.1675C6.1613 51.8241 6.57408 52.4162 7.09283 52.9073C7.58395 53.426 8.17602 53.8388 8.83261 54.1202C9.48921 54.4016 10.1964 54.5457 10.9108 54.5435ZM10.9108 16.364C11.6275 16.3718 12.3383 16.2331 12.9995 15.9564C13.6607 15.6797 14.2584 15.2709 14.756 14.755C15.2719 14.2574 15.6807 13.6597 15.9574 12.9985C16.2341 12.3373 16.3728 11.6265 16.365 10.9098C16.3728 10.1931 16.2341 9.48234 15.9574 8.82113C15.6807 8.15992 15.2719 7.56219 14.756 7.06459C14.2584 6.5487 13.6607 6.13989 12.9995 5.86322C12.3383 5.58654 11.6275 5.44783 10.9108 5.45559C9.47604 5.46887 8.10431 6.04695 7.09283 7.06459C6.56808 7.5568 6.15158 8.1529 5.86987 8.81493C5.58816 9.47696 5.4474 10.1904 5.45657 10.9098C5.4474 11.6292 5.58816 12.3427 5.86987 13.0047C6.15158 13.6667 6.56808 14.2628 7.09283 14.755C8.10431 15.7727 9.47604 16.3508 10.9108 16.364ZM49.0903 59.9978C46.1972 59.9978 43.4226 58.8485 41.3769 56.8028C39.3311 54.757 38.1819 51.9824 38.1819 49.0893C38.1819 46.1962 39.3311 43.4216 41.3769 41.3759C43.4226 39.3302 46.1972 38.1809 49.0903 38.1809C51.9834 38.1809 54.758 39.3302 56.8037 41.3759C58.8495 43.4216 59.9987 46.1962 59.9987 49.0893C59.9987 51.9824 58.8495 54.757 56.8037 56.8028C54.758 58.8485 51.9834 59.9978 49.0903 59.9978ZM49.0903 54.5435C49.8097 54.5527 50.5232 54.412 51.1852 54.1302C51.8472 53.8485 52.4433 53.432 52.9355 52.9073C53.9532 51.8958 54.5312 50.5241 54.5445 49.0893C54.5445 47.6428 53.9699 46.2555 52.947 45.2326C51.9242 44.2098 50.5369 43.6351 49.0903 43.6351C47.6438 43.6351 46.2565 44.2098 45.2336 45.2326C44.2107 46.2555 43.6361 47.6428 43.6361 49.0893C43.6494 50.5241 44.2274 51.8958 45.2451 52.9073C45.7373 53.432 46.3334 53.8485 46.9954 54.1302C47.6575 54.412 48.3709 54.5527 49.0903 54.5435ZM49.0903 16.364C49.807 16.3718 50.5178 16.2331 51.179 15.9564C51.8402 15.6797 52.4379 15.2709 52.9355 14.755C53.4514 14.2574 53.8602 13.6597 54.1369 12.9985C54.4136 12.3373 54.5523 11.6265 54.5445 10.9098C54.5523 10.1931 54.4136 9.48234 54.1369 8.82113C53.8602 8.15992 53.4514 7.56219 52.9355 7.06459C51.9136 6.04873 50.5312 5.47854 49.0903 5.47854C47.6494 5.47854 46.267 6.04873 45.2451 7.06459C44.7292 7.56219 44.3204 8.15992 44.0437 8.82113C43.767 9.48234 43.6283 10.1931 43.6361 10.9098C43.6283 11.6265 43.767 12.3373 44.0437 12.9985C44.3204 13.6597 44.7292 14.2574 45.2451 14.755C45.7427 15.2709 46.3404 15.6797 47.0016 15.9564C47.6628 16.2331 48.3736 16.3718 49.0903 16.364Z" fill="#D9BD41"/>
</svg>
