<svg width="60" height="60" viewBox="0 0 60 60" fill="none" xmlns="http://www.w3.org/2000/svg">
<path d="M29.8492 8.53608L23.608 14.7773H14.7739V23.6115L8.53266 29.8527L14.7739 36.1843V44.928H23.608L29.8492 51.2597L37.3869 43.722L50.0503 50.114L43.5678 37.5411L51.2563 29.8527L44.9246 23.6115V14.7773H36.1809L29.8492 8.53608ZM29.8492 0.00341797L38.593 8.74714H50.9548V21.1089L59.6985 29.8527L50.9548 38.5964L59.6382 55.6316C59.9693 56.217 60.0764 56.9027 59.9397 57.5612C59.8248 58.1502 59.5367 58.6915 59.1124 59.1158C58.6881 59.5401 58.1468 59.8282 57.5578 59.9431C56.8993 60.0799 56.2135 59.9727 55.6281 59.6416L38.593 50.9582L29.8492 59.7019L21.1055 50.9582H8.74372V38.5964L0 29.8527L8.74372 21.1089V8.74714H21.1055L29.8492 0.00341797Z" fill="#D9BD41"/>
</svg>
