<svg width="60" height="66" viewBox="0 0 60 66" fill="none" xmlns="http://www.w3.org/2000/svg">
<path d="M30.9898 44.7127L27.0109 46.584L36.7328 64.5496L40.7116 62.6783L30.9898 44.7127Z" fill="#D8BC40"/>
<path d="M15.7776 45.0067L12.4382 46.7031L14.5707 50.3514L17.9101 48.6549L15.7776 45.0067Z" fill="#D8BC40"/>
<path d="M9.32652 48.2814L2.73904 51.6279L4.87153 55.2762L11.459 51.9297L9.32652 48.2814Z" fill="#D8BC40"/>
<path d="M53.6732 43.3624L38.5939 52.4575L41.0147 55.9458L56.0941 46.8507L53.6732 43.3624Z" fill="#D8BC40"/>
<path d="M46.2923 29.8971L37.8665 34.0923L39.966 37.7572L48.3919 33.562L46.2923 29.8971Z" fill="#D8BC40"/>
<path d="M29.9995 40.9994C29.2864 40.9994 28.618 40.6808 28.1872 40.1407C28.0535 39.9607 24.815 35.7782 21.5171 30.6818C16.8822 23.5079 14.6242 18.453 14.6242 15.2123C14.6242 7.30442 21.5171 0.878418 29.9995 0.878418C38.4819 0.878418 45.3748 7.30442 45.3748 15.2123C45.3748 18.453 43.1168 23.5079 38.4819 30.6818C35.184 35.7782 31.9456 39.9607 31.8119 40.1407C31.3811 40.6808 30.7126 40.9994 29.9995 40.9994ZM29.9995 5.03316C23.9831 5.03316 19.0808 9.60337 19.0808 15.2123C19.0808 19.1454 25.1864 28.7567 29.9995 35.3074C34.8126 28.7567 40.9182 19.1454 40.9182 15.2123C40.9182 9.60337 36.0159 5.03316 29.9995 5.03316Z" fill="#D8BC40"/>
<path d="M29.9995 47.9656C26.5234 47.9656 23.2106 47.2316 20.6852 45.9159C17.7587 44.3787 16.1395 42.2043 16.1395 39.7946C16.1395 37.8419 17.2536 35.9722 19.2888 34.5319C21.0269 33.2993 23.3443 32.413 26.0034 31.956C26.8799 31.8036 27.7712 32.1637 28.2614 32.8562C28.9002 33.7564 29.4944 34.5873 29.9995 35.2798C30.5046 34.5873 31.0988 33.7564 31.7376 32.8562C32.2278 32.1637 33.1191 31.8036 33.9956 31.956C36.6547 32.413 38.9722 33.2993 40.7102 34.5319C42.7454 35.9722 43.8596 37.8419 43.8596 39.7946C43.8596 42.2043 42.2403 44.3787 39.3138 45.9159C36.7884 47.2316 33.4757 47.9656 29.9995 47.9656ZM25.3944 36.3461C22.2747 37.1632 20.5961 38.6451 20.5961 39.7946C20.5961 41.6504 24.711 43.8108 29.9995 43.8108C35.288 43.8108 39.403 41.6504 39.403 39.7946C39.403 38.6451 37.7392 37.1632 34.6047 36.3461C33.0003 38.5897 31.8564 40.0716 31.797 40.1408C31.3811 40.6809 30.7126 40.9995 29.9847 40.9995C29.2567 40.9995 28.6031 40.6809 28.1723 40.1408C28.1426 40.0716 26.9987 38.6036 25.3944 36.3461Z" fill="#D8BC40"/>
<path d="M57.7791 65.6922H2.21995C1.56631 65.6922 0.957239 65.4291 0.541288 64.972C0.125338 64.515 -0.0677821 63.9057 0.0213502 63.3101L5.9635 25.3635C6.12691 24.3387 7.0628 23.5908 8.1621 23.5908H15.055V27.7456H10.0933L4.78993 61.5375H55.1942L49.9057 27.7456H44.944V23.5908H51.8369C52.9362 23.5908 53.8869 24.3525 54.0355 25.3635L59.9777 63.3101C60.0668 63.9057 59.8885 64.515 59.4577 64.972C59.0418 65.4291 58.4327 65.6922 57.7791 65.6922Z" fill="#D8BC40"/>
<path d="M29.9995 21.5277C26.1371 21.5277 22.9878 18.5917 22.9878 14.9909C22.9878 11.3901 26.1371 8.4541 29.9995 8.4541C33.8619 8.4541 37.0112 11.3901 37.0112 14.9909C37.0112 18.5917 33.8619 21.5277 29.9995 21.5277ZM29.9995 12.6088C28.5882 12.6088 27.4444 13.6752 27.4444 14.9909C27.4444 16.3066 28.5882 17.3729 29.9995 17.3729C31.4108 17.3729 32.5546 16.3066 32.5546 14.9909C32.5546 13.6752 31.4108 12.6088 29.9995 12.6088Z" fill="#D8BC40"/>
</svg>
