<svg width="62" height="62" viewBox="0 0 62 62" fill="none" xmlns="http://www.w3.org/2000/svg">
<mask id="path-1-outside-1_23_599" maskUnits="userSpaceOnUse" x="0" y="0" width="62" height="62" fill="black">
<rect fill="white" width="62" height="62"/>
<path d="M30.9933 18.2987C32.7044 18.2987 34.377 17.7915 35.7997 16.8411C37.2224 15.8907 38.3313 14.5398 38.9861 12.9593C39.6409 11.3789 39.8122 9.63978 39.4784 7.96196C39.1446 6.28415 38.3206 4.74298 37.1107 3.53334C35.9008 2.32371 34.3593 1.49994 32.6811 1.1662C31.0029 0.832461 29.2635 1.00375 27.6826 1.6584C26.1018 2.31305 24.7507 3.42166 23.8001 4.84404C22.8494 6.26642 22.3421 7.93869 22.3421 9.64937C22.3421 11.9433 23.2535 14.1433 24.876 15.7654C26.4984 17.3875 28.6989 18.2987 30.9933 18.2987ZM27.6193 15.4644C28.5484 14.613 29.763 14.1407 31.0233 14.1407C32.2836 14.1407 33.4982 14.613 34.4272 15.4644C33.395 16.0697 32.22 16.3888 31.0233 16.3888C29.8266 16.3888 28.6516 16.0697 27.6193 15.4644ZM31.0266 11.9448C30.568 11.9514 30.1178 11.8213 29.7334 11.571C29.349 11.3208 29.0478 10.9618 28.8683 10.5398C28.6888 10.1178 28.6391 9.65186 28.7255 9.20147C28.8119 8.75109 29.0305 8.33663 29.3534 8.01094C29.6763 7.68525 30.0889 7.46309 30.5387 7.37279C30.9884 7.28249 31.4548 7.32813 31.8785 7.5039C32.3021 7.67967 32.6638 7.9776 32.9175 8.35971C33.1711 8.74182 33.3052 9.19079 33.3026 9.64937C33.2973 10.2588 33.0519 10.8416 32.6196 11.2714C32.1873 11.7011 31.603 11.9431 30.9933 11.9448H31.0266ZM31.0266 2.8829C32.3497 2.88388 33.6433 3.27369 34.7466 4.00388C35.8498 4.73406 36.714 5.77239 37.2317 6.98973C37.7494 8.20707 37.8977 9.54971 37.6582 10.8507C37.4187 12.1516 36.8019 13.3534 35.8846 14.3067C35.2574 13.6868 34.5192 13.1903 33.7085 12.843C34.3615 12.2869 34.8282 11.544 35.0456 10.7144C35.2631 9.88488 35.2208 9.0086 34.9244 8.20384C34.6281 7.39907 34.092 6.70455 33.3884 6.21396C32.6849 5.72337 31.8478 5.46034 30.99 5.46034C30.1323 5.46034 29.2951 5.72337 28.5916 6.21396C27.8881 6.70455 27.352 7.39907 27.0556 8.20384C26.7593 9.0086 26.717 9.88488 26.9344 10.7144C27.1518 11.544 27.6185 12.2869 28.2715 12.843C27.462 13.1888 26.7257 13.6856 26.102 14.3067C25.1828 13.3514 24.5654 12.1465 24.327 10.8425C24.0885 9.53843 24.2397 8.19306 24.7615 6.97439C25.2832 5.75571 26.1526 4.71773 27.2609 3.99007C28.3692 3.26242 29.6674 2.87733 30.9933 2.8829H31.0266ZM52.3487 22.3506C50.6376 22.3506 48.965 22.8579 47.5423 23.8083C46.1196 24.7587 45.0108 26.1096 44.356 27.69C43.7012 29.2705 43.5298 31.0096 43.8637 32.6874C44.1975 34.3652 45.0214 35.9064 46.2313 37.116C47.4412 38.3257 48.9827 39.1494 50.6609 39.4832C52.3391 39.8169 54.0786 39.6456 55.6594 38.991C57.2402 38.3363 58.5914 37.2277 59.542 35.8053C60.4926 34.383 61 32.7107 61 31C61 28.706 60.0885 26.506 58.4661 24.884C56.8437 23.2619 54.6432 22.3506 52.3487 22.3506ZM48.9148 36.815C49.8439 35.9636 51.0584 35.4913 52.3188 35.4913C53.5791 35.4913 54.7936 35.9636 55.7227 36.815C54.6905 37.4204 53.5154 37.7395 52.3188 37.7395C51.1221 37.7395 49.947 37.4204 48.9148 36.815ZM52.3221 33.2954C51.8654 33.2954 51.4189 33.16 51.0392 32.9063C50.6594 32.6526 50.3634 32.2921 50.1886 31.8702C50.0139 31.4483 49.9681 30.9841 50.0572 30.5363C50.1463 30.0884 50.3663 29.6771 50.6892 29.3542C51.0122 29.0313 51.4236 28.8114 51.8716 28.7223C52.3195 28.6333 52.7838 28.679 53.2058 28.8537C53.6278 29.0285 53.9884 29.3244 54.2421 29.704C54.4959 30.0837 54.6313 30.5301 54.6313 30.9867C54.6296 31.5939 54.3894 32.1761 53.9625 32.608C53.5355 33.0398 52.956 33.2867 52.3487 33.2954H52.3221ZM57.2134 35.6374C56.5861 35.0175 55.8479 34.521 55.0373 34.1737C55.6903 33.6176 56.157 32.8747 56.3744 32.0451C56.5918 31.2155 56.5495 30.3393 56.2532 29.5345C55.9568 28.7297 55.4207 28.0352 54.7172 27.5446C54.0136 27.054 53.1765 26.791 52.3188 26.791C51.461 26.791 50.6239 27.054 49.9203 27.5446C49.2168 28.0352 48.6807 28.7297 48.3844 29.5345C48.088 30.3393 48.0457 31.2155 48.2631 32.0451C48.4806 32.8747 48.9473 33.6176 49.6003 34.1737C48.7896 34.521 48.0514 35.0175 47.4241 35.6374C46.5111 34.6796 45.8994 33.4749 45.6646 32.1728C45.4299 30.8707 45.5826 29.5283 46.1037 28.3121C46.6248 27.0958 47.4915 26.0593 48.5963 25.3308C49.701 24.6024 50.9954 24.2141 52.3188 24.2141C53.6422 24.2141 54.9365 24.6024 56.0413 25.3308C57.146 26.0593 58.0127 27.0958 58.5338 28.3121C59.0549 29.5283 59.2076 30.8707 58.9729 32.1728C58.7382 33.4749 58.1264 34.6796 57.2134 35.6374ZM18.3026 30.9867C18.3026 29.276 17.7952 27.6037 16.8446 26.1814C15.894 24.759 14.5428 23.6504 12.962 22.9957C11.3812 22.3411 9.64169 22.1698 7.96351 22.5035C6.28532 22.8373 4.74381 23.661 3.53391 24.8707C2.324 26.0803 1.50005 27.6215 1.16624 29.2993C0.832424 30.9771 1.00375 32.7162 1.65854 34.2967C2.31334 35.8771 3.4222 37.228 4.84489 38.1784C6.26759 39.1288 7.94023 39.6361 9.65129 39.6361C11.9458 39.6361 14.1462 38.7248 15.7687 37.1027C17.3911 35.4807 18.3026 33.2807 18.3026 30.9867ZM6.2307 36.815C7.16088 35.9632 8.37654 35.4907 9.63798 35.4907C10.8994 35.4907 12.1151 35.9632 13.0453 36.815C12.012 37.4209 10.8358 37.7403 9.63798 37.7403C8.44012 37.7403 7.26394 37.4209 6.2307 36.815ZM9.65129 33.2954C9.19457 33.2954 8.7481 33.16 8.36835 32.9063C7.9886 32.6526 7.69262 32.2921 7.51784 31.8702C7.34306 31.4483 7.29733 30.9841 7.38643 30.5363C7.47553 30.0884 7.69547 29.6771 8.01842 29.3542C8.34137 29.0313 8.75283 28.8114 9.20078 28.7223C9.64873 28.6333 10.113 28.679 10.535 28.8537C10.9569 29.0285 11.3176 29.3244 11.5713 29.704C11.8251 30.0837 11.9605 30.5301 11.9605 30.9867C11.9605 31.599 11.7172 32.1862 11.2842 32.6192C10.8511 33.0522 10.2637 33.2954 9.65129 33.2954ZM2.88332 30.9867C2.88332 29.8831 3.15385 28.7963 3.67123 27.8214C4.1886 26.8466 4.93707 26.0133 5.85112 25.3946C6.76518 24.7759 7.81697 24.3906 8.91446 24.2724C10.012 24.1542 11.1217 24.3067 12.1466 24.7165C13.1715 25.1264 14.0803 25.7812 14.7935 26.6235C15.5067 27.4658 16.0025 28.47 16.2376 29.5483C16.4728 30.6266 16.44 31.746 16.1421 32.8087C15.8443 33.8714 15.2906 34.8449 14.5293 35.644C13.9056 35.0229 13.1693 34.5261 12.3598 34.1803C13.0119 33.6238 13.4777 32.8808 13.6944 32.0514C13.9111 31.2221 13.8682 30.3462 13.5716 29.5419C13.275 28.7377 12.7389 28.0437 12.0355 27.5535C11.3321 27.0633 10.4954 26.8005 9.63798 26.8005C8.78059 26.8005 7.94382 27.0633 7.24046 27.5535C6.5371 28.0437 6.00097 28.7377 5.70434 29.5419C5.40771 30.3462 5.36485 31.2221 5.58153 32.0514C5.79821 32.8808 6.26401 33.6238 6.91615 34.1803C6.10662 34.5261 5.37035 35.0229 4.74668 35.644C3.54698 34.3906 2.87919 32.7215 2.88332 30.9867ZM30.9933 43.7013C29.2823 43.7013 27.6096 44.2085 26.1869 45.1589C24.7643 46.1094 23.6554 47.4602 23.0006 49.0407C22.3458 50.6211 22.1745 52.3602 22.5083 54.038C22.8421 55.7159 23.6661 57.257 24.876 58.4667C26.0859 59.6763 27.6274 60.5001 29.3056 60.8338C30.9837 61.1675 32.7232 60.9963 34.304 60.3416C35.8849 59.687 37.236 58.5783 38.1866 57.156C39.1372 55.7336 39.6446 54.0613 39.6446 52.3506C39.6446 50.0567 38.7332 47.8567 37.1107 46.2346C35.4883 44.6125 33.2878 43.7013 30.9933 43.7013ZM27.6193 58.1657C28.5484 57.3143 29.763 56.842 31.0233 56.842C32.2836 56.842 33.4982 57.3143 34.4272 58.1657C33.395 58.771 32.22 59.0901 31.0233 59.0901C29.8266 59.0901 28.6516 58.771 27.6193 58.1657ZM31.0266 54.646C30.568 54.6474 30.1193 54.5125 29.7375 54.2586C29.3556 54.0047 29.0578 53.6432 28.8817 53.2198C28.7055 52.7965 28.6591 52.3304 28.7483 51.8806C28.8374 51.4309 29.0581 51.0177 29.3824 50.6935C29.7067 50.3693 30.1199 50.1486 30.5698 50.0595C31.0197 49.9704 31.4859 50.0168 31.9093 50.1928C32.3327 50.3689 32.6944 50.6667 32.9483 51.0485C33.2023 51.4303 33.3372 51.8788 33.3358 52.3373C33.335 52.6431 33.2736 52.9456 33.1551 53.2275C33.0367 53.5094 32.8636 53.7651 32.6458 53.9797C32.428 54.1944 32.1699 54.3638 31.8862 54.4781C31.6026 54.5925 31.2991 54.6496 30.9933 54.646H31.0266ZM35.9179 56.988C35.2797 56.3744 34.5297 55.8888 33.7085 55.5576C34.3632 55.0024 34.8317 54.2596 35.0506 53.4297C35.2695 52.5997 35.2283 51.7226 34.9326 50.9169C34.6368 50.1111 34.1008 49.4155 33.3969 48.9241C32.693 48.4327 31.8552 48.1693 30.9967 48.1693C30.1382 48.1693 29.3004 48.4327 28.5965 48.9241C27.8926 49.4155 27.3565 50.1111 27.0608 50.9169C26.765 51.7226 26.7238 52.5997 26.9427 53.4297C27.1616 54.2596 27.6301 55.0024 28.2848 55.5576C27.474 55.901 26.7373 56.3981 26.1154 57.0213C25.2037 56.0643 24.5929 54.8608 24.3588 53.5601C24.1247 52.2593 24.2774 50.9185 24.7981 49.7037C25.3189 48.489 26.1847 47.4537 27.2883 46.7261C28.3919 45.9986 29.6847 45.6108 31.0067 45.6108C32.3286 45.6108 33.6214 45.9986 34.725 46.7261C35.8286 47.4537 36.6944 48.489 37.2152 49.7037C37.7359 50.9185 37.8887 52.2593 37.6545 53.5601C37.4204 54.8608 36.8096 56.0643 35.898 57.0213L35.9179 56.988ZM41.1553 10.0619C41.2665 9.84478 41.4584 9.67996 41.6899 9.60283C41.9213 9.5257 42.1738 9.54241 42.3931 9.64937C46.6038 11.9017 50.0521 15.3516 52.3021 19.5629C52.3604 19.6716 52.3966 19.7908 52.4087 19.9136C52.4208 20.0363 52.4086 20.1603 52.3728 20.2783C52.3369 20.3964 52.2781 20.5062 52.1998 20.6015C52.1214 20.6968 52.025 20.7757 51.9161 20.8337C51.7809 20.906 51.6303 20.9448 51.4769 20.9468C51.306 20.9473 51.1381 20.901 50.9915 20.8131C50.8449 20.7251 50.7251 20.5988 50.6451 20.4478C48.5629 16.5761 45.3814 13.407 41.5013 11.3393C41.2821 11.2197 41.1191 11.0182 41.048 10.7788C40.977 10.5395 41.0036 10.2817 41.122 10.0619H41.1553ZM9.65129 19.5895C11.905 15.3628 15.366 11.9025 19.5936 9.64937C19.7024 9.59127 19.8216 9.55516 19.9444 9.54311C20.0671 9.53106 20.1911 9.5433 20.3091 9.57913C20.4271 9.61496 20.5369 9.67369 20.6323 9.75195C20.7276 9.83022 20.8066 9.92649 20.8647 10.0353C20.9228 10.144 20.9589 10.2632 20.971 10.3859C20.983 10.5087 20.9708 10.6326 20.9349 10.7506C20.8991 10.8686 20.8404 10.9784 20.7621 11.0737C20.6838 11.169 20.5875 11.248 20.4787 11.3061C16.592 13.3922 13.4103 16.5825 11.335 20.4744C11.256 20.6249 11.1374 20.751 10.992 20.8389C10.8465 20.9269 10.6798 20.9734 10.5098 20.9734C10.3542 20.9722 10.2012 20.9334 10.0639 20.8603C9.95272 20.8046 9.85373 20.7274 9.77267 20.6331C9.6916 20.5388 9.63009 20.4294 9.5917 20.3112C9.55331 20.1929 9.53881 20.0682 9.54904 19.9444C9.55927 19.8205 9.59402 19.6998 9.65129 19.5895ZM20.8647 51.9115C20.7838 52.0613 20.6636 52.1863 20.5171 52.273C20.3705 52.3598 20.2031 52.405 20.0328 52.4039C19.8791 52.4049 19.7277 52.366 19.5936 52.2908C15.3715 50.0455 11.9112 46.5975 9.65129 42.3839C9.53304 42.1642 9.50692 41.9066 9.57868 41.6676C9.65044 41.4287 9.8142 41.228 10.0339 41.1098C10.2537 40.9916 10.5114 40.9654 10.7504 41.0372C10.9894 41.1089 11.1901 41.2727 11.3083 41.4924C13.3931 45.3796 16.5845 48.5611 20.4787 50.6341C20.6991 50.7525 20.8635 50.9535 20.9359 51.193C21.0082 51.4325 20.9826 51.6909 20.8647 51.9115ZM52.3021 42.3839C50.0498 46.5918 46.6019 50.0389 42.3931 52.2908C42.2569 52.3668 42.1032 52.4058 41.9472 52.4039C41.7772 52.4039 41.6105 52.3574 41.465 52.2694C41.3195 52.1815 41.2009 52.0554 41.122 51.9049C41.0039 51.686 40.9774 51.4293 41.0486 51.191C41.1197 50.9527 41.2825 50.7524 41.5013 50.6341C45.3871 48.5589 48.5694 45.3773 50.6451 41.4924C50.7036 41.3836 50.783 41.2874 50.8788 41.2093C50.9745 41.1312 51.0847 41.0727 51.203 41.0372C51.3214 41.0017 51.4455 40.9898 51.5685 41.0022C51.6914 41.0147 51.8107 41.0512 51.9195 41.1098C52.0283 41.1683 52.1245 41.2477 52.2026 41.3434C52.2807 41.4391 52.3392 41.5493 52.3747 41.6676C52.4103 41.7859 52.4221 41.9101 52.4097 42.033C52.3972 42.1559 52.3607 42.2751 52.3021 42.3839ZM40.929 33.6015C41.1779 33.6015 41.4165 33.5026 41.5925 33.3267C41.7685 33.1508 41.8673 32.9121 41.8673 32.6633V29.3367C41.8691 29.2124 41.8461 29.0889 41.7998 28.9736C41.7534 28.8582 41.6846 28.7532 41.5973 28.6647C41.51 28.5762 41.4059 28.5059 41.2912 28.4579C41.1765 28.4099 41.0534 28.3852 40.929 28.3852H39.9973C39.8041 27.709 39.5339 27.0572 39.1921 26.4425L39.8576 25.7771C40.0331 25.6002 40.1317 25.361 40.1317 25.1118C40.1317 24.8625 40.0331 24.6234 39.8576 24.4464L37.5084 22.0978C37.3314 21.9223 37.0922 21.8238 36.8429 21.8238C36.5937 21.8238 36.3545 21.9223 36.1775 22.0978L35.512 22.7631C34.9106 22.4226 34.2719 22.1525 33.6087 21.9581V21.0266C33.6087 20.7778 33.5098 20.5392 33.3339 20.3633C33.1579 20.1873 32.9192 20.0885 32.6704 20.0885H29.3429C29.0941 20.0885 28.8554 20.1873 28.6794 20.3633C28.5035 20.5392 28.4046 20.7778 28.4046 21.0266V21.9581C27.7272 22.1484 27.0749 22.4187 26.4614 22.7631L25.7959 22.0978C25.6189 21.9223 25.3797 21.8238 25.1304 21.8238C24.8811 21.8238 24.6419 21.9223 24.465 22.0978L22.1158 24.4464C21.9382 24.6225 21.8377 24.8618 21.8363 25.1118C21.8355 25.2358 21.8599 25.3587 21.9079 25.4731C21.956 25.5874 22.0267 25.6908 22.1158 25.7771L22.7813 26.4425C22.4368 27.0558 22.1664 27.708 21.976 28.3852H21.0311C20.7822 28.3852 20.5435 28.4841 20.3676 28.66C20.1916 28.8359 20.0927 29.0746 20.0927 29.3234V32.65C20.091 32.7743 20.1139 32.8978 20.1603 33.0131C20.2067 33.1285 20.2755 33.2335 20.3628 33.322C20.4501 33.4105 20.5542 33.4808 20.6689 33.5288C20.7836 33.5768 20.9067 33.6015 21.0311 33.6015H21.9627C22.1543 34.2783 22.4246 34.9303 22.768 35.5442L22.1025 36.2096C21.9269 36.3865 21.8284 36.6257 21.8284 36.8749C21.8284 37.1242 21.9269 37.3633 22.1025 37.5403L24.4516 39.8889C24.63 40.0622 24.8684 40.1599 25.1171 40.1617C25.2405 40.1622 25.3629 40.1384 25.477 40.0916C25.5912 40.0448 25.6951 39.9759 25.7826 39.8889L26.4481 39.2236C27.0616 39.568 27.7139 39.8383 28.3913 40.0286V40.9202C28.3913 41.169 28.4902 41.4076 28.6661 41.5835C28.8421 41.7594 29.0808 41.8583 29.3296 41.8583H32.6571C32.7814 41.8601 32.9048 41.8371 33.0202 41.7907C33.1356 41.7444 33.2406 41.6756 33.3292 41.5883C33.4177 41.501 33.488 41.397 33.536 41.2823C33.584 41.1676 33.6087 41.0445 33.6087 40.9202V39.9887C34.2847 39.7943 34.9365 39.5242 35.5519 39.1836L36.2174 39.849C36.3944 40.0245 36.6336 40.123 36.8829 40.123C37.1322 40.123 37.3714 40.0245 37.5484 39.849L39.8975 37.5003C40.0708 37.322 40.1686 37.0836 40.1704 36.835C40.1709 36.7116 40.1471 36.5893 40.1002 36.4752C40.0534 36.361 39.9845 36.2572 39.8975 36.1697L39.232 35.5043C39.568 34.9024 39.8337 34.264 40.024 33.6015H40.929ZM39.984 31.7186H39.2853C39.0672 31.7189 38.856 31.7946 38.6874 31.9328C38.5188 32.0711 38.4032 32.2633 38.3602 32.4771C38.1665 33.428 37.789 34.332 37.2489 35.1384C37.1279 35.3184 37.073 35.5348 37.0937 35.7508C37.1143 35.9667 37.2091 36.1688 37.362 36.3227L37.8811 36.8417L36.8563 37.8596L36.3438 37.3473C36.1907 37.1934 35.989 37.0974 35.773 37.0755C35.557 37.0537 35.3401 37.1074 35.1593 37.2275C34.3545 37.7708 33.4496 38.1485 32.4973 38.3387C32.2842 38.3828 32.0925 38.4987 31.9545 38.667C31.8164 38.8353 31.7403 39.0458 31.7387 39.2635V39.9887H30.2813V39.2768C30.2813 39.0597 30.2065 38.8493 30.0695 38.6809C29.9326 38.5124 29.7418 38.3963 29.5293 38.352C28.577 38.1618 27.6722 37.7841 26.8673 37.2409C26.6855 37.1202 26.4675 37.0662 26.2504 37.0881C26.0332 37.1099 25.8303 37.2062 25.6761 37.3606L25.1637 37.8729L24.1455 36.855L24.6579 36.336C24.8119 36.1829 24.9079 35.9812 24.9298 35.7653C24.9516 35.5493 24.8979 35.3325 24.7777 35.1517C24.2328 34.3472 23.8528 33.4426 23.6597 32.4904C23.6179 32.2761 23.5026 32.0831 23.3338 31.9446C23.1649 31.8062 22.9531 31.7309 22.7347 31.7319H21.9694V30.2748H22.6948C22.9152 30.277 23.1294 30.2015 23.2998 30.0616C23.4702 29.9217 23.5858 29.7263 23.6264 29.5096C23.8196 28.5574 24.1995 27.6528 24.7445 26.8483C24.875 26.6622 24.934 26.4354 24.9108 26.2093C24.8876 25.9832 24.7836 25.7731 24.618 25.6174L24.1056 25.1051L25.1238 24.0872L25.6362 24.5995C25.7904 24.7539 25.9933 24.8502 26.2104 24.872C26.4276 24.8938 26.6456 24.8399 26.8274 24.7192C27.6339 24.1776 28.538 23.798 29.4894 23.6015C29.707 23.5685 29.9059 23.4595 30.0509 23.2939C30.1959 23.1283 30.2775 22.9167 30.2813 22.6966V21.9647H31.7254V22.6966C31.7238 22.9131 31.7972 23.1234 31.933 23.292C32.0689 23.4605 32.2588 23.5769 32.4707 23.6214C33.4215 23.8199 34.3252 24.1994 35.1327 24.7392C35.3135 24.8593 35.5304 24.913 35.7464 24.8912C35.9624 24.8694 36.1641 24.7733 36.3172 24.6194L36.8296 24.1071L37.8545 25.1251L37.3354 25.6374C37.182 25.7924 37.0869 25.9956 37.0663 26.2127C37.0457 26.4298 37.1008 26.6473 37.2223 26.8283C37.7624 27.6347 38.1399 28.5387 38.3336 29.4897C38.3705 29.7134 38.4873 29.9163 38.6622 30.0606C38.8372 30.2049 39.0585 30.281 39.2853 30.2748H40.0106V31.7186H39.984ZM30.9933 25.1051C29.8295 25.1038 28.6915 25.4476 27.7232 26.0931C26.7549 26.7386 25.9998 27.6567 25.5535 28.7313C25.1073 29.8059 24.9898 30.9887 25.216 32.13C25.4423 33.2714 26.002 34.32 26.8245 35.1432C27.647 35.9665 28.6952 36.5273 29.8365 36.7548C30.9779 36.9822 32.1611 36.8662 33.2364 36.4212C34.3118 35.9762 35.2309 35.2224 35.8777 34.255C36.5244 33.2876 36.8696 32.1502 36.8696 30.9867C36.8678 29.4285 36.2484 27.9345 35.1469 26.8321C34.0455 25.7297 32.5519 25.1086 30.9933 25.1051ZM30.9933 34.9854C30.2036 34.9854 29.4316 34.7512 28.775 34.3126C28.1184 33.8739 27.6066 33.2505 27.3044 32.521C27.0022 31.7916 26.9231 30.9889 27.0772 30.2145C27.2312 29.4402 27.6115 28.7289 28.1699 28.1706C28.7284 27.6123 29.4398 27.2321 30.2144 27.078C30.9889 26.924 31.7918 27.0031 32.5214 27.3052C33.251 27.6074 33.8746 28.119 34.3133 28.7755C34.7521 29.432 34.9862 30.2038 34.9862 30.9934C34.9862 32.0521 34.5656 33.0675 33.8168 33.8161C33.0679 34.5648 32.0523 34.9854 30.9933 34.9854Z"/>
</mask>
<path d="M30.9933 18.2987C32.7044 18.2987 34.377 17.7915 35.7997 16.8411C37.2224 15.8907 38.3313 14.5398 38.9861 12.9593C39.6409 11.3789 39.8122 9.63978 39.4784 7.96196C39.1446 6.28415 38.3206 4.74298 37.1107 3.53334C35.9008 2.32371 34.3593 1.49994 32.6811 1.1662C31.0029 0.832461 29.2635 1.00375 27.6826 1.6584C26.1018 2.31305 24.7507 3.42166 23.8001 4.84404C22.8494 6.26642 22.3421 7.93869 22.3421 9.64937C22.3421 11.9433 23.2535 14.1433 24.876 15.7654C26.4984 17.3875 28.6989 18.2987 30.9933 18.2987ZM27.6193 15.4644C28.5484 14.613 29.763 14.1407 31.0233 14.1407C32.2836 14.1407 33.4982 14.613 34.4272 15.4644C33.395 16.0697 32.22 16.3888 31.0233 16.3888C29.8266 16.3888 28.6516 16.0697 27.6193 15.4644ZM31.0266 11.9448C30.568 11.9514 30.1178 11.8213 29.7334 11.571C29.349 11.3208 29.0478 10.9618 28.8683 10.5398C28.6888 10.1178 28.6391 9.65186 28.7255 9.20147C28.8119 8.75109 29.0305 8.33663 29.3534 8.01094C29.6763 7.68525 30.0889 7.46309 30.5387 7.37279C30.9884 7.28249 31.4548 7.32813 31.8785 7.5039C32.3021 7.67967 32.6638 7.9776 32.9175 8.35971C33.1711 8.74182 33.3052 9.19079 33.3026 9.64937C33.2973 10.2588 33.0519 10.8416 32.6196 11.2714C32.1873 11.7011 31.603 11.9431 30.9933 11.9448H31.0266ZM31.0266 2.8829C32.3497 2.88388 33.6433 3.27369 34.7466 4.00388C35.8498 4.73406 36.714 5.77239 37.2317 6.98973C37.7494 8.20707 37.8977 9.54971 37.6582 10.8507C37.4187 12.1516 36.8019 13.3534 35.8846 14.3067C35.2574 13.6868 34.5192 13.1903 33.7085 12.843C34.3615 12.2869 34.8282 11.544 35.0456 10.7144C35.2631 9.88488 35.2208 9.0086 34.9244 8.20384C34.6281 7.39907 34.092 6.70455 33.3884 6.21396C32.6849 5.72337 31.8478 5.46034 30.99 5.46034C30.1323 5.46034 29.2951 5.72337 28.5916 6.21396C27.8881 6.70455 27.352 7.39907 27.0556 8.20384C26.7593 9.0086 26.717 9.88488 26.9344 10.7144C27.1518 11.544 27.6185 12.2869 28.2715 12.843C27.462 13.1888 26.7257 13.6856 26.102 14.3067C25.1828 13.3514 24.5654 12.1465 24.327 10.8425C24.0885 9.53843 24.2397 8.19306 24.7615 6.97439C25.2832 5.75571 26.1526 4.71773 27.2609 3.99007C28.3692 3.26242 29.6674 2.87733 30.9933 2.8829H31.0266ZM52.3487 22.3506C50.6376 22.3506 48.965 22.8579 47.5423 23.8083C46.1196 24.7587 45.0108 26.1096 44.356 27.69C43.7012 29.2705 43.5298 31.0096 43.8637 32.6874C44.1975 34.3652 45.0214 35.9064 46.2313 37.116C47.4412 38.3257 48.9827 39.1494 50.6609 39.4832C52.3391 39.8169 54.0786 39.6456 55.6594 38.991C57.2402 38.3363 58.5914 37.2277 59.542 35.8053C60.4926 34.383 61 32.7107 61 31C61 28.706 60.0885 26.506 58.4661 24.884C56.8437 23.2619 54.6432 22.3506 52.3487 22.3506ZM48.9148 36.815C49.8439 35.9636 51.0584 35.4913 52.3188 35.4913C53.5791 35.4913 54.7936 35.9636 55.7227 36.815C54.6905 37.4204 53.5154 37.7395 52.3188 37.7395C51.1221 37.7395 49.947 37.4204 48.9148 36.815ZM52.3221 33.2954C51.8654 33.2954 51.4189 33.16 51.0392 32.9063C50.6594 32.6526 50.3634 32.2921 50.1886 31.8702C50.0139 31.4483 49.9681 30.9841 50.0572 30.5363C50.1463 30.0884 50.3663 29.6771 50.6892 29.3542C51.0122 29.0313 51.4236 28.8114 51.8716 28.7223C52.3195 28.6333 52.7838 28.679 53.2058 28.8537C53.6278 29.0285 53.9884 29.3244 54.2421 29.704C54.4959 30.0837 54.6313 30.5301 54.6313 30.9867C54.6296 31.5939 54.3894 32.1761 53.9625 32.608C53.5355 33.0398 52.956 33.2867 52.3487 33.2954H52.3221ZM57.2134 35.6374C56.5861 35.0175 55.8479 34.521 55.0373 34.1737C55.6903 33.6176 56.157 32.8747 56.3744 32.0451C56.5918 31.2155 56.5495 30.3393 56.2532 29.5345C55.9568 28.7297 55.4207 28.0352 54.7172 27.5446C54.0136 27.054 53.1765 26.791 52.3188 26.791C51.461 26.791 50.6239 27.054 49.9203 27.5446C49.2168 28.0352 48.6807 28.7297 48.3844 29.5345C48.088 30.3393 48.0457 31.2155 48.2631 32.0451C48.4806 32.8747 48.9473 33.6176 49.6003 34.1737C48.7896 34.521 48.0514 35.0175 47.4241 35.6374C46.5111 34.6796 45.8994 33.4749 45.6646 32.1728C45.4299 30.8707 45.5826 29.5283 46.1037 28.3121C46.6248 27.0958 47.4915 26.0593 48.5963 25.3308C49.701 24.6024 50.9954 24.2141 52.3188 24.2141C53.6422 24.2141 54.9365 24.6024 56.0413 25.3308C57.146 26.0593 58.0127 27.0958 58.5338 28.3121C59.0549 29.5283 59.2076 30.8707 58.9729 32.1728C58.7382 33.4749 58.1264 34.6796 57.2134 35.6374ZM18.3026 30.9867C18.3026 29.276 17.7952 27.6037 16.8446 26.1814C15.894 24.759 14.5428 23.6504 12.962 22.9957C11.3812 22.3411 9.64169 22.1698 7.96351 22.5035C6.28532 22.8373 4.74381 23.661 3.53391 24.8707C2.324 26.0803 1.50005 27.6215 1.16624 29.2993C0.832424 30.9771 1.00375 32.7162 1.65854 34.2967C2.31334 35.8771 3.4222 37.228 4.84489 38.1784C6.26759 39.1288 7.94023 39.6361 9.65129 39.6361C11.9458 39.6361 14.1462 38.7248 15.7687 37.1027C17.3911 35.4807 18.3026 33.2807 18.3026 30.9867ZM6.2307 36.815C7.16088 35.9632 8.37654 35.4907 9.63798 35.4907C10.8994 35.4907 12.1151 35.9632 13.0453 36.815C12.012 37.4209 10.8358 37.7403 9.63798 37.7403C8.44012 37.7403 7.26394 37.4209 6.2307 36.815ZM9.65129 33.2954C9.19457 33.2954 8.7481 33.16 8.36835 32.9063C7.9886 32.6526 7.69262 32.2921 7.51784 31.8702C7.34306 31.4483 7.29733 30.9841 7.38643 30.5363C7.47553 30.0884 7.69547 29.6771 8.01842 29.3542C8.34137 29.0313 8.75283 28.8114 9.20078 28.7223C9.64873 28.6333 10.113 28.679 10.535 28.8537C10.9569 29.0285 11.3176 29.3244 11.5713 29.704C11.8251 30.0837 11.9605 30.5301 11.9605 30.9867C11.9605 31.599 11.7172 32.1862 11.2842 32.6192C10.8511 33.0522 10.2637 33.2954 9.65129 33.2954ZM2.88332 30.9867C2.88332 29.8831 3.15385 28.7963 3.67123 27.8214C4.1886 26.8466 4.93707 26.0133 5.85112 25.3946C6.76518 24.7759 7.81697 24.3906 8.91446 24.2724C10.012 24.1542 11.1217 24.3067 12.1466 24.7165C13.1715 25.1264 14.0803 25.7812 14.7935 26.6235C15.5067 27.4658 16.0025 28.47 16.2376 29.5483C16.4728 30.6266 16.44 31.746 16.1421 32.8087C15.8443 33.8714 15.2906 34.8449 14.5293 35.644C13.9056 35.0229 13.1693 34.5261 12.3598 34.1803C13.0119 33.6238 13.4777 32.8808 13.6944 32.0514C13.9111 31.2221 13.8682 30.3462 13.5716 29.5419C13.275 28.7377 12.7389 28.0437 12.0355 27.5535C11.3321 27.0633 10.4954 26.8005 9.63798 26.8005C8.78059 26.8005 7.94382 27.0633 7.24046 27.5535C6.5371 28.0437 6.00097 28.7377 5.70434 29.5419C5.40771 30.3462 5.36485 31.2221 5.58153 32.0514C5.79821 32.8808 6.26401 33.6238 6.91615 34.1803C6.10662 34.5261 5.37035 35.0229 4.74668 35.644C3.54698 34.3906 2.87919 32.7215 2.88332 30.9867ZM30.9933 43.7013C29.2823 43.7013 27.6096 44.2085 26.1869 45.1589C24.7643 46.1094 23.6554 47.4602 23.0006 49.0407C22.3458 50.6211 22.1745 52.3602 22.5083 54.038C22.8421 55.7159 23.6661 57.257 24.876 58.4667C26.0859 59.6763 27.6274 60.5001 29.3056 60.8338C30.9837 61.1675 32.7232 60.9963 34.304 60.3416C35.8849 59.687 37.236 58.5783 38.1866 57.156C39.1372 55.7336 39.6446 54.0613 39.6446 52.3506C39.6446 50.0567 38.7332 47.8567 37.1107 46.2346C35.4883 44.6125 33.2878 43.7013 30.9933 43.7013ZM27.6193 58.1657C28.5484 57.3143 29.763 56.842 31.0233 56.842C32.2836 56.842 33.4982 57.3143 34.4272 58.1657C33.395 58.771 32.22 59.0901 31.0233 59.0901C29.8266 59.0901 28.6516 58.771 27.6193 58.1657ZM31.0266 54.646C30.568 54.6474 30.1193 54.5125 29.7375 54.2586C29.3556 54.0047 29.0578 53.6432 28.8817 53.2198C28.7055 52.7965 28.6591 52.3304 28.7483 51.8806C28.8374 51.4309 29.0581 51.0177 29.3824 50.6935C29.7067 50.3693 30.1199 50.1486 30.5698 50.0595C31.0197 49.9704 31.4859 50.0168 31.9093 50.1928C32.3327 50.3689 32.6944 50.6667 32.9483 51.0485C33.2023 51.4303 33.3372 51.8788 33.3358 52.3373C33.335 52.6431 33.2736 52.9456 33.1551 53.2275C33.0367 53.5094 32.8636 53.7651 32.6458 53.9797C32.428 54.1944 32.1699 54.3638 31.8862 54.4781C31.6026 54.5925 31.2991 54.6496 30.9933 54.646H31.0266ZM35.9179 56.988C35.2797 56.3744 34.5297 55.8888 33.7085 55.5576C34.3632 55.0024 34.8317 54.2596 35.0506 53.4297C35.2695 52.5997 35.2283 51.7226 34.9326 50.9169C34.6368 50.1111 34.1008 49.4155 33.3969 48.9241C32.693 48.4327 31.8552 48.1693 30.9967 48.1693C30.1382 48.1693 29.3004 48.4327 28.5965 48.9241C27.8926 49.4155 27.3565 50.1111 27.0608 50.9169C26.765 51.7226 26.7238 52.5997 26.9427 53.4297C27.1616 54.2596 27.6301 55.0024 28.2848 55.5576C27.474 55.901 26.7373 56.3981 26.1154 57.0213C25.2037 56.0643 24.5929 54.8608 24.3588 53.5601C24.1247 52.2593 24.2774 50.9185 24.7981 49.7037C25.3189 48.489 26.1847 47.4537 27.2883 46.7261C28.3919 45.9986 29.6847 45.6108 31.0067 45.6108C32.3286 45.6108 33.6214 45.9986 34.725 46.7261C35.8286 47.4537 36.6944 48.489 37.2152 49.7037C37.7359 50.9185 37.8887 52.2593 37.6545 53.5601C37.4204 54.8608 36.8096 56.0643 35.898 57.0213L35.9179 56.988ZM41.1553 10.0619C41.2665 9.84478 41.4584 9.67996 41.6899 9.60283C41.9213 9.5257 42.1738 9.54241 42.3931 9.64937C46.6038 11.9017 50.0521 15.3516 52.3021 19.5629C52.3604 19.6716 52.3966 19.7908 52.4087 19.9136C52.4208 20.0363 52.4086 20.1603 52.3728 20.2783C52.3369 20.3964 52.2781 20.5062 52.1998 20.6015C52.1214 20.6968 52.025 20.7757 51.9161 20.8337C51.7809 20.906 51.6303 20.9448 51.4769 20.9468C51.306 20.9473 51.1381 20.901 50.9915 20.8131C50.8449 20.7251 50.7251 20.5988 50.6451 20.4478C48.5629 16.5761 45.3814 13.407 41.5013 11.3393C41.2821 11.2197 41.1191 11.0182 41.048 10.7788C40.977 10.5395 41.0036 10.2817 41.122 10.0619H41.1553ZM9.65129 19.5895C11.905 15.3628 15.366 11.9025 19.5936 9.64937C19.7024 9.59127 19.8216 9.55516 19.9444 9.54311C20.0671 9.53106 20.1911 9.5433 20.3091 9.57913C20.4271 9.61496 20.5369 9.67369 20.6323 9.75195C20.7276 9.83022 20.8066 9.92649 20.8647 10.0353C20.9228 10.144 20.9589 10.2632 20.971 10.3859C20.983 10.5087 20.9708 10.6326 20.9349 10.7506C20.8991 10.8686 20.8404 10.9784 20.7621 11.0737C20.6838 11.169 20.5875 11.248 20.4787 11.3061C16.592 13.3922 13.4103 16.5825 11.335 20.4744C11.256 20.6249 11.1374 20.751 10.992 20.8389C10.8465 20.9269 10.6798 20.9734 10.5098 20.9734C10.3542 20.9722 10.2012 20.9334 10.0639 20.8603C9.95272 20.8046 9.85373 20.7274 9.77267 20.6331C9.6916 20.5388 9.63009 20.4294 9.5917 20.3112C9.55331 20.1929 9.53881 20.0682 9.54904 19.9444C9.55927 19.8205 9.59402 19.6998 9.65129 19.5895ZM20.8647 51.9115C20.7838 52.0613 20.6636 52.1863 20.5171 52.273C20.3705 52.3598 20.2031 52.405 20.0328 52.4039C19.8791 52.4049 19.7277 52.366 19.5936 52.2908C15.3715 50.0455 11.9112 46.5975 9.65129 42.3839C9.53304 42.1642 9.50692 41.9066 9.57868 41.6676C9.65044 41.4287 9.8142 41.228 10.0339 41.1098C10.2537 40.9916 10.5114 40.9654 10.7504 41.0372C10.9894 41.1089 11.1901 41.2727 11.3083 41.4924C13.3931 45.3796 16.5845 48.5611 20.4787 50.6341C20.6991 50.7525 20.8635 50.9535 20.9359 51.193C21.0082 51.4325 20.9826 51.6909 20.8647 51.9115ZM52.3021 42.3839C50.0498 46.5918 46.6019 50.0389 42.3931 52.2908C42.2569 52.3668 42.1032 52.4058 41.9472 52.4039C41.7772 52.4039 41.6105 52.3574 41.465 52.2694C41.3195 52.1815 41.2009 52.0554 41.122 51.9049C41.0039 51.686 40.9774 51.4293 41.0486 51.191C41.1197 50.9527 41.2825 50.7524 41.5013 50.6341C45.3871 48.5589 48.5694 45.3773 50.6451 41.4924C50.7036 41.3836 50.783 41.2874 50.8788 41.2093C50.9745 41.1312 51.0847 41.0727 51.203 41.0372C51.3214 41.0017 51.4455 40.9898 51.5685 41.0022C51.6914 41.0147 51.8107 41.0512 51.9195 41.1098C52.0283 41.1683 52.1245 41.2477 52.2026 41.3434C52.2807 41.4391 52.3392 41.5493 52.3747 41.6676C52.4103 41.7859 52.4221 41.9101 52.4097 42.033C52.3972 42.1559 52.3607 42.2751 52.3021 42.3839ZM40.929 33.6015C41.1779 33.6015 41.4165 33.5026 41.5925 33.3267C41.7685 33.1508 41.8673 32.9121 41.8673 32.6633V29.3367C41.8691 29.2124 41.8461 29.0889 41.7998 28.9736C41.7534 28.8582 41.6846 28.7532 41.5973 28.6647C41.51 28.5762 41.4059 28.5059 41.2912 28.4579C41.1765 28.4099 41.0534 28.3852 40.929 28.3852H39.9973C39.8041 27.709 39.5339 27.0572 39.1921 26.4425L39.8576 25.7771C40.0331 25.6002 40.1317 25.361 40.1317 25.1118C40.1317 24.8625 40.0331 24.6234 39.8576 24.4464L37.5084 22.0978C37.3314 21.9223 37.0922 21.8238 36.8429 21.8238C36.5937 21.8238 36.3545 21.9223 36.1775 22.0978L35.512 22.7631C34.9106 22.4226 34.2719 22.1525 33.6087 21.9581V21.0266C33.6087 20.7778 33.5098 20.5392 33.3339 20.3633C33.1579 20.1873 32.9192 20.0885 32.6704 20.0885H29.3429C29.0941 20.0885 28.8554 20.1873 28.6794 20.3633C28.5035 20.5392 28.4046 20.7778 28.4046 21.0266V21.9581C27.7272 22.1484 27.0749 22.4187 26.4614 22.7631L25.7959 22.0978C25.6189 21.9223 25.3797 21.8238 25.1304 21.8238C24.8811 21.8238 24.6419 21.9223 24.465 22.0978L22.1158 24.4464C21.9382 24.6225 21.8377 24.8618 21.8363 25.1118C21.8355 25.2358 21.8599 25.3587 21.9079 25.4731C21.956 25.5874 22.0267 25.6908 22.1158 25.7771L22.7813 26.4425C22.4368 27.0558 22.1664 27.708 21.976 28.3852H21.0311C20.7822 28.3852 20.5435 28.4841 20.3676 28.66C20.1916 28.8359 20.0927 29.0746 20.0927 29.3234V32.65C20.091 32.7743 20.1139 32.8978 20.1603 33.0131C20.2067 33.1285 20.2755 33.2335 20.3628 33.322C20.4501 33.4105 20.5542 33.4808 20.6689 33.5288C20.7836 33.5768 20.9067 33.6015 21.0311 33.6015H21.9627C22.1543 34.2783 22.4246 34.9303 22.768 35.5442L22.1025 36.2096C21.9269 36.3865 21.8284 36.6257 21.8284 36.8749C21.8284 37.1242 21.9269 37.3633 22.1025 37.5403L24.4516 39.8889C24.63 40.0622 24.8684 40.1599 25.1171 40.1617C25.2405 40.1622 25.3629 40.1384 25.477 40.0916C25.5912 40.0448 25.6951 39.9759 25.7826 39.8889L26.4481 39.2236C27.0616 39.568 27.7139 39.8383 28.3913 40.0286V40.9202C28.3913 41.169 28.4902 41.4076 28.6661 41.5835C28.8421 41.7594 29.0808 41.8583 29.3296 41.8583H32.6571C32.7814 41.8601 32.9048 41.8371 33.0202 41.7907C33.1356 41.7444 33.2406 41.6756 33.3292 41.5883C33.4177 41.501 33.488 41.397 33.536 41.2823C33.584 41.1676 33.6087 41.0445 33.6087 40.9202V39.9887C34.2847 39.7943 34.9365 39.5242 35.5519 39.1836L36.2174 39.849C36.3944 40.0245 36.6336 40.123 36.8829 40.123C37.1322 40.123 37.3714 40.0245 37.5484 39.849L39.8975 37.5003C40.0708 37.322 40.1686 37.0836 40.1704 36.835C40.1709 36.7116 40.1471 36.5893 40.1002 36.4752C40.0534 36.361 39.9845 36.2572 39.8975 36.1697L39.232 35.5043C39.568 34.9024 39.8337 34.264 40.024 33.6015H40.929ZM39.984 31.7186H39.2853C39.0672 31.7189 38.856 31.7946 38.6874 31.9328C38.5188 32.0711 38.4032 32.2633 38.3602 32.4771C38.1665 33.428 37.789 34.332 37.2489 35.1384C37.1279 35.3184 37.073 35.5348 37.0937 35.7508C37.1143 35.9667 37.2091 36.1688 37.362 36.3227L37.8811 36.8417L36.8563 37.8596L36.3438 37.3473C36.1907 37.1934 35.989 37.0974 35.773 37.0755C35.557 37.0537 35.3401 37.1074 35.1593 37.2275C34.3545 37.7708 33.4496 38.1485 32.4973 38.3387C32.2842 38.3828 32.0925 38.4987 31.9545 38.667C31.8164 38.8353 31.7403 39.0458 31.7387 39.2635V39.9887H30.2813V39.2768C30.2813 39.0597 30.2065 38.8493 30.0695 38.6809C29.9326 38.5124 29.7418 38.3963 29.5293 38.352C28.577 38.1618 27.6722 37.7841 26.8673 37.2409C26.6855 37.1202 26.4675 37.0662 26.2504 37.0881C26.0332 37.1099 25.8303 37.2062 25.6761 37.3606L25.1637 37.8729L24.1455 36.855L24.6579 36.336C24.8119 36.1829 24.9079 35.9812 24.9298 35.7653C24.9516 35.5493 24.8979 35.3325 24.7777 35.1517C24.2328 34.3472 23.8528 33.4426 23.6597 32.4904C23.6179 32.2761 23.5026 32.0831 23.3338 31.9446C23.1649 31.8062 22.9531 31.7309 22.7347 31.7319H21.9694V30.2748H22.6948C22.9152 30.277 23.1294 30.2015 23.2998 30.0616C23.4702 29.9217 23.5858 29.7263 23.6264 29.5096C23.8196 28.5574 24.1995 27.6528 24.7445 26.8483C24.875 26.6622 24.934 26.4354 24.9108 26.2093C24.8876 25.9832 24.7836 25.7731 24.618 25.6174L24.1056 25.1051L25.1238 24.0872L25.6362 24.5995C25.7904 24.7539 25.9933 24.8502 26.2104 24.872C26.4276 24.8938 26.6456 24.8399 26.8274 24.7192C27.6339 24.1776 28.538 23.798 29.4894 23.6015C29.707 23.5685 29.9059 23.4595 30.0509 23.2939C30.1959 23.1283 30.2775 22.9167 30.2813 22.6966V21.9647H31.7254V22.6966C31.7238 22.9131 31.7972 23.1234 31.933 23.292C32.0689 23.4605 32.2588 23.5769 32.4707 23.6214C33.4215 23.8199 34.3252 24.1994 35.1327 24.7392C35.3135 24.8593 35.5304 24.913 35.7464 24.8912C35.9624 24.8694 36.1641 24.7733 36.3172 24.6194L36.8296 24.1071L37.8545 25.1251L37.3354 25.6374C37.182 25.7924 37.0869 25.9956 37.0663 26.2127C37.0457 26.4298 37.1008 26.6473 37.2223 26.8283C37.7624 27.6347 38.1399 28.5387 38.3336 29.4897C38.3705 29.7134 38.4873 29.9163 38.6622 30.0606C38.8372 30.2049 39.0585 30.281 39.2853 30.2748H40.0106V31.7186H39.984ZM30.9933 25.1051C29.8295 25.1038 28.6915 25.4476 27.7232 26.0931C26.7549 26.7386 25.9998 27.6567 25.5535 28.7313C25.1073 29.8059 24.9898 30.9887 25.216 32.13C25.4423 33.2714 26.002 34.32 26.8245 35.1432C27.647 35.9665 28.6952 36.5273 29.8365 36.7548C30.9779 36.9822 32.1611 36.8662 33.2364 36.4212C34.3118 35.9762 35.2309 35.2224 35.8777 34.255C36.5244 33.2876 36.8696 32.1502 36.8696 30.9867C36.8678 29.4285 36.2484 27.9345 35.1469 26.8321C34.0455 25.7297 32.5519 25.1086 30.9933 25.1051ZM30.9933 34.9854C30.2036 34.9854 29.4316 34.7512 28.775 34.3126C28.1184 33.8739 27.6066 33.2505 27.3044 32.521C27.0022 31.7916 26.9231 30.9889 27.0772 30.2145C27.2312 29.4402 27.6115 28.7289 28.1699 28.1706C28.7284 27.6123 29.4398 27.2321 30.2144 27.078C30.9889 26.924 31.7918 27.0031 32.5214 27.3052C33.251 27.6074 33.8746 28.119 34.3133 28.7755C34.7521 29.432 34.9862 30.2038 34.9862 30.9934C34.9862 32.0521 34.5656 33.0675 33.8168 33.8161C33.0679 34.5648 32.0523 34.9854 30.9933 34.9854Z" fill="#D9BD41"/>
<path d="M30.9933 18.2987C32.7044 18.2987 34.377 17.7915 35.7997 16.8411C37.2224 15.8907 38.3313 14.5398 38.9861 12.9593C39.6409 11.3789 39.8122 9.63978 39.4784 7.96196C39.1446 6.28415 38.3206 4.74298 37.1107 3.53334C35.9008 2.32371 34.3593 1.49994 32.6811 1.1662C31.0029 0.832461 29.2635 1.00375 27.6826 1.6584C26.1018 2.31305 24.7507 3.42166 23.8001 4.84404C22.8494 6.26642 22.3421 7.93869 22.3421 9.64937C22.3421 11.9433 23.2535 14.1433 24.876 15.7654C26.4984 17.3875 28.6989 18.2987 30.9933 18.2987ZM27.6193 15.4644C28.5484 14.613 29.763 14.1407 31.0233 14.1407C32.2836 14.1407 33.4982 14.613 34.4272 15.4644C33.395 16.0697 32.22 16.3888 31.0233 16.3888C29.8266 16.3888 28.6516 16.0697 27.6193 15.4644ZM31.0266 11.9448C30.568 11.9514 30.1178 11.8213 29.7334 11.571C29.349 11.3208 29.0478 10.9618 28.8683 10.5398C28.6888 10.1178 28.6391 9.65186 28.7255 9.20147C28.8119 8.75109 29.0305 8.33663 29.3534 8.01094C29.6763 7.68525 30.0889 7.46309 30.5387 7.37279C30.9884 7.28249 31.4548 7.32813 31.8785 7.5039C32.3021 7.67967 32.6638 7.9776 32.9175 8.35971C33.1711 8.74182 33.3052 9.19079 33.3026 9.64937C33.2973 10.2588 33.0519 10.8416 32.6196 11.2714C32.1873 11.7011 31.603 11.9431 30.9933 11.9448H31.0266ZM31.0266 2.8829C32.3497 2.88388 33.6433 3.27369 34.7466 4.00388C35.8498 4.73406 36.714 5.77239 37.2317 6.98973C37.7494 8.20707 37.8977 9.54971 37.6582 10.8507C37.4187 12.1516 36.8019 13.3534 35.8846 14.3067C35.2574 13.6868 34.5192 13.1903 33.7085 12.843C34.3615 12.2869 34.8282 11.544 35.0456 10.7144C35.2631 9.88488 35.2208 9.0086 34.9244 8.20384C34.6281 7.39907 34.092 6.70455 33.3884 6.21396C32.6849 5.72337 31.8478 5.46034 30.99 5.46034C30.1323 5.46034 29.2951 5.72337 28.5916 6.21396C27.8881 6.70455 27.352 7.39907 27.0556 8.20384C26.7593 9.0086 26.717 9.88488 26.9344 10.7144C27.1518 11.544 27.6185 12.2869 28.2715 12.843C27.462 13.1888 26.7257 13.6856 26.102 14.3067C25.1828 13.3514 24.5654 12.1465 24.327 10.8425C24.0885 9.53843 24.2397 8.19306 24.7615 6.97439C25.2832 5.75571 26.1526 4.71773 27.2609 3.99007C28.3692 3.26242 29.6674 2.87733 30.9933 2.8829H31.0266ZM52.3487 22.3506C50.6376 22.3506 48.965 22.8579 47.5423 23.8083C46.1196 24.7587 45.0108 26.1096 44.356 27.69C43.7012 29.2705 43.5298 31.0096 43.8637 32.6874C44.1975 34.3652 45.0214 35.9064 46.2313 37.116C47.4412 38.3257 48.9827 39.1494 50.6609 39.4832C52.3391 39.8169 54.0786 39.6456 55.6594 38.991C57.2402 38.3363 58.5914 37.2277 59.542 35.8053C60.4926 34.383 61 32.7107 61 31C61 28.706 60.0885 26.506 58.4661 24.884C56.8437 23.2619 54.6432 22.3506 52.3487 22.3506ZM48.9148 36.815C49.8439 35.9636 51.0584 35.4913 52.3188 35.4913C53.5791 35.4913 54.7936 35.9636 55.7227 36.815C54.6905 37.4204 53.5154 37.7395 52.3188 37.7395C51.1221 37.7395 49.947 37.4204 48.9148 36.815ZM52.3221 33.2954C51.8654 33.2954 51.4189 33.16 51.0392 32.9063C50.6594 32.6526 50.3634 32.2921 50.1886 31.8702C50.0139 31.4483 49.9681 30.9841 50.0572 30.5363C50.1463 30.0884 50.3663 29.6771 50.6892 29.3542C51.0122 29.0313 51.4236 28.8114 51.8716 28.7223C52.3195 28.6333 52.7838 28.679 53.2058 28.8537C53.6278 29.0285 53.9884 29.3244 54.2421 29.704C54.4959 30.0837 54.6313 30.5301 54.6313 30.9867C54.6296 31.5939 54.3894 32.1761 53.9625 32.608C53.5355 33.0398 52.956 33.2867 52.3487 33.2954H52.3221ZM57.2134 35.6374C56.5861 35.0175 55.8479 34.521 55.0373 34.1737C55.6903 33.6176 56.157 32.8747 56.3744 32.0451C56.5918 31.2155 56.5495 30.3393 56.2532 29.5345C55.9568 28.7297 55.4207 28.0352 54.7172 27.5446C54.0136 27.054 53.1765 26.791 52.3188 26.791C51.461 26.791 50.6239 27.054 49.9203 27.5446C49.2168 28.0352 48.6807 28.7297 48.3844 29.5345C48.088 30.3393 48.0457 31.2155 48.2631 32.0451C48.4806 32.8747 48.9473 33.6176 49.6003 34.1737C48.7896 34.521 48.0514 35.0175 47.4241 35.6374C46.5111 34.6796 45.8994 33.4749 45.6646 32.1728C45.4299 30.8707 45.5826 29.5283 46.1037 28.3121C46.6248 27.0958 47.4915 26.0593 48.5963 25.3308C49.701 24.6024 50.9954 24.2141 52.3188 24.2141C53.6422 24.2141 54.9365 24.6024 56.0413 25.3308C57.146 26.0593 58.0127 27.0958 58.5338 28.3121C59.0549 29.5283 59.2076 30.8707 58.9729 32.1728C58.7382 33.4749 58.1264 34.6796 57.2134 35.6374ZM18.3026 30.9867C18.3026 29.276 17.7952 27.6037 16.8446 26.1814C15.894 24.759 14.5428 23.6504 12.962 22.9957C11.3812 22.3411 9.64169 22.1698 7.96351 22.5035C6.28532 22.8373 4.74381 23.661 3.53391 24.8707C2.324 26.0803 1.50005 27.6215 1.16624 29.2993C0.832424 30.9771 1.00375 32.7162 1.65854 34.2967C2.31334 35.8771 3.4222 37.228 4.84489 38.1784C6.26759 39.1288 7.94023 39.6361 9.65129 39.6361C11.9458 39.6361 14.1462 38.7248 15.7687 37.1027C17.3911 35.4807 18.3026 33.2807 18.3026 30.9867ZM6.2307 36.815C7.16088 35.9632 8.37654 35.4907 9.63798 35.4907C10.8994 35.4907 12.1151 35.9632 13.0453 36.815C12.012 37.4209 10.8358 37.7403 9.63798 37.7403C8.44012 37.7403 7.26394 37.4209 6.2307 36.815ZM9.65129 33.2954C9.19457 33.2954 8.7481 33.16 8.36835 32.9063C7.9886 32.6526 7.69262 32.2921 7.51784 31.8702C7.34306 31.4483 7.29733 30.9841 7.38643 30.5363C7.47553 30.0884 7.69547 29.6771 8.01842 29.3542C8.34137 29.0313 8.75283 28.8114 9.20078 28.7223C9.64873 28.6333 10.113 28.679 10.535 28.8537C10.9569 29.0285 11.3176 29.3244 11.5713 29.704C11.8251 30.0837 11.9605 30.5301 11.9605 30.9867C11.9605 31.599 11.7172 32.1862 11.2842 32.6192C10.8511 33.0522 10.2637 33.2954 9.65129 33.2954ZM2.88332 30.9867C2.88332 29.8831 3.15385 28.7963 3.67123 27.8214C4.1886 26.8466 4.93707 26.0133 5.85112 25.3946C6.76518 24.7759 7.81697 24.3906 8.91446 24.2724C10.012 24.1542 11.1217 24.3067 12.1466 24.7165C13.1715 25.1264 14.0803 25.7812 14.7935 26.6235C15.5067 27.4658 16.0025 28.47 16.2376 29.5483C16.4728 30.6266 16.44 31.746 16.1421 32.8087C15.8443 33.8714 15.2906 34.8449 14.5293 35.644C13.9056 35.0229 13.1693 34.5261 12.3598 34.1803C13.0119 33.6238 13.4777 32.8808 13.6944 32.0514C13.9111 31.2221 13.8682 30.3462 13.5716 29.5419C13.275 28.7377 12.7389 28.0437 12.0355 27.5535C11.3321 27.0633 10.4954 26.8005 9.63798 26.8005C8.78059 26.8005 7.94382 27.0633 7.24046 27.5535C6.5371 28.0437 6.00097 28.7377 5.70434 29.5419C5.40771 30.3462 5.36485 31.2221 5.58153 32.0514C5.79821 32.8808 6.26401 33.6238 6.91615 34.1803C6.10662 34.5261 5.37035 35.0229 4.74668 35.644C3.54698 34.3906 2.87919 32.7215 2.88332 30.9867ZM30.9933 43.7013C29.2823 43.7013 27.6096 44.2085 26.1869 45.1589C24.7643 46.1094 23.6554 47.4602 23.0006 49.0407C22.3458 50.6211 22.1745 52.3602 22.5083 54.038C22.8421 55.7159 23.6661 57.257 24.876 58.4667C26.0859 59.6763 27.6274 60.5001 29.3056 60.8338C30.9837 61.1675 32.7232 60.9963 34.304 60.3416C35.8849 59.687 37.236 58.5783 38.1866 57.156C39.1372 55.7336 39.6446 54.0613 39.6446 52.3506C39.6446 50.0567 38.7332 47.8567 37.1107 46.2346C35.4883 44.6125 33.2878 43.7013 30.9933 43.7013ZM27.6193 58.1657C28.5484 57.3143 29.763 56.842 31.0233 56.842C32.2836 56.842 33.4982 57.3143 34.4272 58.1657C33.395 58.771 32.22 59.0901 31.0233 59.0901C29.8266 59.0901 28.6516 58.771 27.6193 58.1657ZM31.0266 54.646C30.568 54.6474 30.1193 54.5125 29.7375 54.2586C29.3556 54.0047 29.0578 53.6432 28.8817 53.2198C28.7055 52.7965 28.6591 52.3304 28.7483 51.8806C28.8374 51.4309 29.0581 51.0177 29.3824 50.6935C29.7067 50.3693 30.1199 50.1486 30.5698 50.0595C31.0197 49.9704 31.4859 50.0168 31.9093 50.1928C32.3327 50.3689 32.6944 50.6667 32.9483 51.0485C33.2023 51.4303 33.3372 51.8788 33.3358 52.3373C33.335 52.6431 33.2736 52.9456 33.1551 53.2275C33.0367 53.5094 32.8636 53.7651 32.6458 53.9797C32.428 54.1944 32.1699 54.3638 31.8862 54.4781C31.6026 54.5925 31.2991 54.6496 30.9933 54.646H31.0266ZM35.9179 56.988C35.2797 56.3744 34.5297 55.8888 33.7085 55.5576C34.3632 55.0024 34.8317 54.2596 35.0506 53.4297C35.2695 52.5997 35.2283 51.7226 34.9326 50.9169C34.6368 50.1111 34.1008 49.4155 33.3969 48.9241C32.693 48.4327 31.8552 48.1693 30.9967 48.1693C30.1382 48.1693 29.3004 48.4327 28.5965 48.9241C27.8926 49.4155 27.3565 50.1111 27.0608 50.9169C26.765 51.7226 26.7238 52.5997 26.9427 53.4297C27.1616 54.2596 27.6301 55.0024 28.2848 55.5576C27.474 55.901 26.7373 56.3981 26.1154 57.0213C25.2037 56.0643 24.5929 54.8608 24.3588 53.5601C24.1247 52.2593 24.2774 50.9185 24.7981 49.7037C25.3189 48.489 26.1847 47.4537 27.2883 46.7261C28.3919 45.9986 29.6847 45.6108 31.0067 45.6108C32.3286 45.6108 33.6214 45.9986 34.725 46.7261C35.8286 47.4537 36.6944 48.489 37.2152 49.7037C37.7359 50.9185 37.8887 52.2593 37.6545 53.5601C37.4204 54.8608 36.8096 56.0643 35.898 57.0213L35.9179 56.988ZM41.1553 10.0619C41.2665 9.84478 41.4584 9.67996 41.6899 9.60283C41.9213 9.5257 42.1738 9.54241 42.3931 9.64937C46.6038 11.9017 50.0521 15.3516 52.3021 19.5629C52.3604 19.6716 52.3966 19.7908 52.4087 19.9136C52.4208 20.0363 52.4086 20.1603 52.3728 20.2783C52.3369 20.3964 52.2781 20.5062 52.1998 20.6015C52.1214 20.6968 52.025 20.7757 51.9161 20.8337C51.7809 20.906 51.6303 20.9448 51.4769 20.9468C51.306 20.9473 51.1381 20.901 50.9915 20.8131C50.8449 20.7251 50.7251 20.5988 50.6451 20.4478C48.5629 16.5761 45.3814 13.407 41.5013 11.3393C41.2821 11.2197 41.1191 11.0182 41.048 10.7788C40.977 10.5395 41.0036 10.2817 41.122 10.0619H41.1553ZM9.65129 19.5895C11.905 15.3628 15.366 11.9025 19.5936 9.64937C19.7024 9.59127 19.8216 9.55516 19.9444 9.54311C20.0671 9.53106 20.1911 9.5433 20.3091 9.57913C20.4271 9.61496 20.5369 9.67369 20.6323 9.75195C20.7276 9.83022 20.8066 9.92649 20.8647 10.0353C20.9228 10.144 20.9589 10.2632 20.971 10.3859C20.983 10.5087 20.9708 10.6326 20.9349 10.7506C20.8991 10.8686 20.8404 10.9784 20.7621 11.0737C20.6838 11.169 20.5875 11.248 20.4787 11.3061C16.592 13.3922 13.4103 16.5825 11.335 20.4744C11.256 20.6249 11.1374 20.751 10.992 20.8389C10.8465 20.9269 10.6798 20.9734 10.5098 20.9734C10.3542 20.9722 10.2012 20.9334 10.0639 20.8603C9.95272 20.8046 9.85373 20.7274 9.77267 20.6331C9.6916 20.5388 9.63009 20.4294 9.5917 20.3112C9.55331 20.1929 9.53881 20.0682 9.54904 19.9444C9.55927 19.8205 9.59402 19.6998 9.65129 19.5895ZM20.8647 51.9115C20.7838 52.0613 20.6636 52.1863 20.5171 52.273C20.3705 52.3598 20.2031 52.405 20.0328 52.4039C19.8791 52.4049 19.7277 52.366 19.5936 52.2908C15.3715 50.0455 11.9112 46.5975 9.65129 42.3839C9.53304 42.1642 9.50692 41.9066 9.57868 41.6676C9.65044 41.4287 9.8142 41.228 10.0339 41.1098C10.2537 40.9916 10.5114 40.9654 10.7504 41.0372C10.9894 41.1089 11.1901 41.2727 11.3083 41.4924C13.3931 45.3796 16.5845 48.5611 20.4787 50.6341C20.6991 50.7525 20.8635 50.9535 20.9359 51.193C21.0082 51.4325 20.9826 51.6909 20.8647 51.9115ZM52.3021 42.3839C50.0498 46.5918 46.6019 50.0389 42.3931 52.2908C42.2569 52.3668 42.1032 52.4058 41.9472 52.4039C41.7772 52.4039 41.6105 52.3574 41.465 52.2694C41.3195 52.1815 41.2009 52.0554 41.122 51.9049C41.0039 51.686 40.9774 51.4293 41.0486 51.191C41.1197 50.9527 41.2825 50.7524 41.5013 50.6341C45.3871 48.5589 48.5694 45.3773 50.6451 41.4924C50.7036 41.3836 50.783 41.2874 50.8788 41.2093C50.9745 41.1312 51.0847 41.0727 51.203 41.0372C51.3214 41.0017 51.4455 40.9898 51.5685 41.0022C51.6914 41.0147 51.8107 41.0512 51.9195 41.1098C52.0283 41.1683 52.1245 41.2477 52.2026 41.3434C52.2807 41.4391 52.3392 41.5493 52.3747 41.6676C52.4103 41.7859 52.4221 41.9101 52.4097 42.033C52.3972 42.1559 52.3607 42.2751 52.3021 42.3839ZM40.929 33.6015C41.1779 33.6015 41.4165 33.5026 41.5925 33.3267C41.7685 33.1508 41.8673 32.9121 41.8673 32.6633V29.3367C41.8691 29.2124 41.8461 29.0889 41.7998 28.9736C41.7534 28.8582 41.6846 28.7532 41.5973 28.6647C41.51 28.5762 41.4059 28.5059 41.2912 28.4579C41.1765 28.4099 41.0534 28.3852 40.929 28.3852H39.9973C39.8041 27.709 39.5339 27.0572 39.1921 26.4425L39.8576 25.7771C40.0331 25.6002 40.1317 25.361 40.1317 25.1118C40.1317 24.8625 40.0331 24.6234 39.8576 24.4464L37.5084 22.0978C37.3314 21.9223 37.0922 21.8238 36.8429 21.8238C36.5937 21.8238 36.3545 21.9223 36.1775 22.0978L35.512 22.7631C34.9106 22.4226 34.2719 22.1525 33.6087 21.9581V21.0266C33.6087 20.7778 33.5098 20.5392 33.3339 20.3633C33.1579 20.1873 32.9192 20.0885 32.6704 20.0885H29.3429C29.0941 20.0885 28.8554 20.1873 28.6794 20.3633C28.5035 20.5392 28.4046 20.7778 28.4046 21.0266V21.9581C27.7272 22.1484 27.0749 22.4187 26.4614 22.7631L25.7959 22.0978C25.6189 21.9223 25.3797 21.8238 25.1304 21.8238C24.8811 21.8238 24.6419 21.9223 24.465 22.0978L22.1158 24.4464C21.9382 24.6225 21.8377 24.8618 21.8363 25.1118C21.8355 25.2358 21.8599 25.3587 21.9079 25.4731C21.956 25.5874 22.0267 25.6908 22.1158 25.7771L22.7813 26.4425C22.4368 27.0558 22.1664 27.708 21.976 28.3852H21.0311C20.7822 28.3852 20.5435 28.4841 20.3676 28.66C20.1916 28.8359 20.0927 29.0746 20.0927 29.3234V32.65C20.091 32.7743 20.1139 32.8978 20.1603 33.0131C20.2067 33.1285 20.2755 33.2335 20.3628 33.322C20.4501 33.4105 20.5542 33.4808 20.6689 33.5288C20.7836 33.5768 20.9067 33.6015 21.0311 33.6015H21.9627C22.1543 34.2783 22.4246 34.9303 22.768 35.5442L22.1025 36.2096C21.9269 36.3865 21.8284 36.6257 21.8284 36.8749C21.8284 37.1242 21.9269 37.3633 22.1025 37.5403L24.4516 39.8889C24.63 40.0622 24.8684 40.1599 25.1171 40.1617C25.2405 40.1622 25.3629 40.1384 25.477 40.0916C25.5912 40.0448 25.6951 39.9759 25.7826 39.8889L26.4481 39.2236C27.0616 39.568 27.7139 39.8383 28.3913 40.0286V40.9202C28.3913 41.169 28.4902 41.4076 28.6661 41.5835C28.8421 41.7594 29.0808 41.8583 29.3296 41.8583H32.6571C32.7814 41.8601 32.9048 41.8371 33.0202 41.7907C33.1356 41.7444 33.2406 41.6756 33.3292 41.5883C33.4177 41.501 33.488 41.397 33.536 41.2823C33.584 41.1676 33.6087 41.0445 33.6087 40.9202V39.9887C34.2847 39.7943 34.9365 39.5242 35.5519 39.1836L36.2174 39.849C36.3944 40.0245 36.6336 40.123 36.8829 40.123C37.1322 40.123 37.3714 40.0245 37.5484 39.849L39.8975 37.5003C40.0708 37.322 40.1686 37.0836 40.1704 36.835C40.1709 36.7116 40.1471 36.5893 40.1002 36.4752C40.0534 36.361 39.9845 36.2572 39.8975 36.1697L39.232 35.5043C39.568 34.9024 39.8337 34.264 40.024 33.6015H40.929ZM39.984 31.7186H39.2853C39.0672 31.7189 38.856 31.7946 38.6874 31.9328C38.5188 32.0711 38.4032 32.2633 38.3602 32.4771C38.1665 33.428 37.789 34.332 37.2489 35.1384C37.1279 35.3184 37.073 35.5348 37.0937 35.7508C37.1143 35.9667 37.2091 36.1688 37.362 36.3227L37.8811 36.8417L36.8563 37.8596L36.3438 37.3473C36.1907 37.1934 35.989 37.0974 35.773 37.0755C35.557 37.0537 35.3401 37.1074 35.1593 37.2275C34.3545 37.7708 33.4496 38.1485 32.4973 38.3387C32.2842 38.3828 32.0925 38.4987 31.9545 38.667C31.8164 38.8353 31.7403 39.0458 31.7387 39.2635V39.9887H30.2813V39.2768C30.2813 39.0597 30.2065 38.8493 30.0695 38.6809C29.9326 38.5124 29.7418 38.3963 29.5293 38.352C28.577 38.1618 27.6722 37.7841 26.8673 37.2409C26.6855 37.1202 26.4675 37.0662 26.2504 37.0881C26.0332 37.1099 25.8303 37.2062 25.6761 37.3606L25.1637 37.8729L24.1455 36.855L24.6579 36.336C24.8119 36.1829 24.9079 35.9812 24.9298 35.7653C24.9516 35.5493 24.8979 35.3325 24.7777 35.1517C24.2328 34.3472 23.8528 33.4426 23.6597 32.4904C23.6179 32.2761 23.5026 32.0831 23.3338 31.9446C23.1649 31.8062 22.9531 31.7309 22.7347 31.7319H21.9694V30.2748H22.6948C22.9152 30.277 23.1294 30.2015 23.2998 30.0616C23.4702 29.9217 23.5858 29.7263 23.6264 29.5096C23.8196 28.5574 24.1995 27.6528 24.7445 26.8483C24.875 26.6622 24.934 26.4354 24.9108 26.2093C24.8876 25.9832 24.7836 25.7731 24.618 25.6174L24.1056 25.1051L25.1238 24.0872L25.6362 24.5995C25.7904 24.7539 25.9933 24.8502 26.2104 24.872C26.4276 24.8938 26.6456 24.8399 26.8274 24.7192C27.6339 24.1776 28.538 23.798 29.4894 23.6015C29.707 23.5685 29.9059 23.4595 30.0509 23.2939C30.1959 23.1283 30.2775 22.9167 30.2813 22.6966V21.9647H31.7254V22.6966C31.7238 22.9131 31.7972 23.1234 31.933 23.292C32.0689 23.4605 32.2588 23.5769 32.4707 23.6214C33.4215 23.8199 34.3252 24.1994 35.1327 24.7392C35.3135 24.8593 35.5304 24.913 35.7464 24.8912C35.9624 24.8694 36.1641 24.7733 36.3172 24.6194L36.8296 24.1071L37.8545 25.1251L37.3354 25.6374C37.182 25.7924 37.0869 25.9956 37.0663 26.2127C37.0457 26.4298 37.1008 26.6473 37.2223 26.8283C37.7624 27.6347 38.1399 28.5387 38.3336 29.4897C38.3705 29.7134 38.4873 29.9163 38.6622 30.0606C38.8372 30.2049 39.0585 30.281 39.2853 30.2748H40.0106V31.7186H39.984ZM30.9933 25.1051C29.8295 25.1038 28.6915 25.4476 27.7232 26.0931C26.7549 26.7386 25.9998 27.6567 25.5535 28.7313C25.1073 29.8059 24.9898 30.9887 25.216 32.13C25.4423 33.2714 26.002 34.32 26.8245 35.1432C27.647 35.9665 28.6952 36.5273 29.8365 36.7548C30.9779 36.9822 32.1611 36.8662 33.2364 36.4212C34.3118 35.9762 35.2309 35.2224 35.8777 34.255C36.5244 33.2876 36.8696 32.1502 36.8696 30.9867C36.8678 29.4285 36.2484 27.9345 35.1469 26.8321C34.0455 25.7297 32.5519 25.1086 30.9933 25.1051ZM30.9933 34.9854C30.2036 34.9854 29.4316 34.7512 28.775 34.3126C28.1184 33.8739 27.6066 33.2505 27.3044 32.521C27.0022 31.7916 26.9231 30.9889 27.0772 30.2145C27.2312 29.4402 27.6115 28.7289 28.1699 28.1706C28.7284 27.6123 29.4398 27.2321 30.2144 27.078C30.9889 26.924 31.7918 27.0031 32.5214 27.3052C33.251 27.6074 33.8746 28.119 34.3133 28.7755C34.7521 29.432 34.9862 30.2038 34.9862 30.9934C34.9862 32.0521 34.5656 33.0675 33.8168 33.8161C33.0679 34.5648 32.0523 34.9854 30.9933 34.9854Z" stroke="black" stroke-width="2" mask="url(#path-1-outside-1_23_599)"/>
</svg>
