<svg width="60" height="67" viewBox="0 0 60 67" fill="none" xmlns="http://www.w3.org/2000/svg">
<path d="M30 66.8371L0 50.1704V16.8371L30 0.17041L60 16.8371V50.1704L30 66.8371ZM20.3333 24.3371C21.6111 23.0037 23.0833 21.976 24.75 21.2537C26.4167 20.5315 28.1667 20.1704 30 20.1704C31.8333 20.1704 33.5833 20.5315 35.25 21.2537C36.9167 21.976 38.3889 23.0037 39.6667 24.3371L49.6667 18.7537L30 7.83708L10.3333 18.7537L20.3333 24.3371ZM26.6667 57.3371V46.4204C23.6667 45.6426 21.25 44.0593 19.4167 41.6704C17.5833 39.2815 16.6667 36.5593 16.6667 33.5037C16.6667 32.8926 16.6944 32.3232 16.75 31.7954C16.8056 31.2676 16.9167 30.726 17.0833 30.1704L6.66667 24.3371V46.2537L26.6667 57.3371ZM30 40.1704C31.8333 40.1704 33.4028 39.5176 34.7083 38.2121C36.0139 36.9065 36.6667 35.3371 36.6667 33.5037C36.6667 31.6704 36.0139 30.101 34.7083 28.7954C33.4028 27.4899 31.8333 26.8371 30 26.8371C28.1667 26.8371 26.5972 27.4899 25.2917 28.7954C23.9861 30.101 23.3333 31.6704 23.3333 33.5037C23.3333 35.3371 23.9861 36.9065 25.2917 38.2121C26.5972 39.5176 28.1667 40.1704 30 40.1704ZM33.3333 57.3371L53.3333 46.2537V24.3371L42.9167 30.1704C43.0833 30.726 43.1944 31.2676 43.25 31.7954C43.3056 32.3232 43.3333 32.8926 43.3333 33.5037C43.3333 36.5593 42.4167 39.2815 40.5833 41.6704C38.75 44.0593 36.3333 45.6426 33.3333 46.4204V57.3371Z" fill="#D8BC40"/>
</svg>
