<svg width="60" height="60" viewBox="0 0 60 60" fill="none" xmlns="http://www.w3.org/2000/svg">
<g clip-path="url(#clip0_42_1137)">
<path d="M6.00034 60.0003C5.2119 60.0089 4.43003 59.8563 3.70265 59.5519C2.97528 59.2476 2.31774 58.7978 1.77034 58.2303C1.20283 57.6829 0.753115 57.0254 0.448753 56.298C0.144391 55.5707 -0.00819838 54.7888 0.000339479 54.0003V21.0003C-0.00819838 20.2119 0.144391 19.43 0.448753 18.7027C0.753115 17.9753 1.20283 17.3177 1.77034 16.7703C2.31774 16.2028 2.97528 15.7531 3.70265 15.4488C4.43003 15.1444 5.2119 14.9918 6.00034 15.0003H21.0003V6.00034C20.9918 5.2119 21.1444 4.43003 21.4488 3.70265C21.7531 2.97528 22.2028 2.31774 22.7703 1.77034C23.3177 1.20283 23.9753 0.753115 24.7027 0.448753C25.43 0.144391 26.2119 -0.00819838 27.0003 0.000339479H33.0003C33.7888 -0.00819838 34.5707 0.144391 35.298 0.448753C36.0254 0.753115 36.6829 1.20283 37.2303 1.77034C37.7978 2.31774 38.2476 2.97528 38.5519 3.70265C38.8563 4.43003 39.0089 5.2119 39.0003 6.00034V15.0003H54.0003C55.5916 15.0003 57.1178 15.6325 58.243 16.7577C59.3682 17.8829 60.0003 19.409 60.0003 21.0003V54.0003C60.0003 55.5916 59.3682 57.1178 58.243 58.243C57.1178 59.3682 55.5916 60.0003 54.0003 60.0003H6.00034ZM6.00034 54.0003H54.0003V21.0003H39.0003C39.0003 22.5916 38.3682 24.1178 37.243 25.243C36.1178 26.3682 34.5916 27.0003 33.0003 27.0003H27.0003C25.409 27.0003 23.8829 26.3682 22.7577 25.243C21.6325 24.1178 21.0003 22.5916 21.0003 21.0003H6.00034V54.0003ZM12.0003 48.0003H30.0003V46.6503C30.0022 45.8062 29.7514 44.9808 29.2803 44.2803C28.7896 43.547 28.1039 42.9651 27.3003 42.6003C26.3357 42.1642 25.331 41.8226 24.3003 41.5803C22.1425 41.1407 19.9182 41.1407 17.7603 41.5803C16.7297 41.8226 15.725 42.1642 14.7603 42.6003C13.9568 42.9651 13.2711 43.547 12.7803 44.2803C12.3092 44.9808 12.0585 45.8062 12.0603 46.6503L12.0003 48.0003ZM36.0003 43.5003H48.0003V39.0003H36.0003V43.5003ZM21.0003 39.0003C21.8898 38.9996 22.759 38.7352 23.4983 38.2407C24.2376 37.7462 24.8138 37.0437 25.1541 36.2219C25.4943 35.4001 25.5834 34.4959 25.4101 33.6235C25.2368 32.7511 24.8089 31.9497 24.1803 31.3203C23.3366 30.4776 22.1928 30.0043 21.0003 30.0043C19.8078 30.0043 18.6641 30.4776 17.8203 31.3203C17.1918 31.9497 16.7639 32.7511 16.5905 33.6235C16.4172 34.4959 16.5063 35.4001 16.8466 36.2219C17.1869 37.0437 17.7631 37.7462 18.5023 38.2407C19.2416 38.7352 20.1109 38.9996 21.0003 39.0003ZM36.0003 34.5003H48.0003V30.0003H36.0003V34.5003ZM27.0003 21.0003H33.0003V6.00034H27.0003V21.0003Z" fill="#D8BC40"/>
</g>
<defs>
<clipPath id="clip0_42_1137">
<rect width="60" height="60" fill="white"/>
</clipPath>
</defs>
</svg>
